<svg id="kity_svg_6" xmlns="http://www.w3.org/2000/svg" xmlns:xlink="http://www.w3.org/1999/xlink" version="1.1" width="580" height="559" style="background: rgb(251, 251, 251); visibility: visible;" viewBox="0 0 580 559"><defs id="kity_defs_7"><linearGradient id="kity_linearGradient_17" x1="0" y1="0" x2="0" y2="1"><stop id="kity_stop_18" offset="0" stop-color="rgb(255, 255, 255)"></stop><stop id="kity_stop_19" offset="1" stop-color="rgb(204, 204, 204)"></stop></linearGradient><marker id="kity_marker_2" orient="auto" refX="6" refY="0" viewBox="-7 -7 14 14" markerWidth="7" markerHeight="7" markerUnits="userSpaceOnUse"><path id="kity_path_3" fill="rgb(115, 161, 191)" stroke="none" d="M6,0A6,6,0,1,1,-6,0A6,6,0,1,1,6,0"></path></marker></defs><g id="kity_g_8"><g id="minder1" text-rendering="optimize-speed"><g id="minder_connect_group1"><path id="kity_path_31" fill="none" stroke="rgb(115, 161, 191)" stroke-width="1" d="M74.5,250.5A70,195,0,0,1,144.5,55.5"></path><path id="kity_path_39" fill="none" stroke="rgb(115, 161, 191)" stroke-width="1" d="M74.5,250.5A70,122,0,0,1,144.5,128.5"></path><path id="kity_path_47" fill="none" stroke="rgb(115, 161, 191)" stroke-width="1" d="M74.5,250.5A70,49,0,0,1,144.5,201.5"></path><path id="kity_path_55" fill="none" stroke="rgb(115, 161, 191)" stroke-width="1" d="M74.5,250.5A70,37,0,0,0,144.5,287.5"></path><path id="kity_path_63" fill="none" stroke="rgb(115, 161, 191)" stroke-width="1" d="M74.5,250.5A70,195,0,0,0,144.5,445.5"></path><path id="kity_path_71" fill="none" stroke="rgb(115, 161, 191)" stroke-width="1" d="M273.5,55.5C281.5,55.5,281.5,29.5,289.5,29.5"></path><path id="kity_path_79" fill="none" stroke="rgb(115, 161, 191)" stroke-width="1" d="M273.5,55.5C281.5,55.5,281.5,55.5,289.5,55.5"></path><path id="kity_path_87" fill="none" stroke="rgb(115, 161, 191)" stroke-width="1" d="M273.5,55.5C281.5,55.5,281.5,81.5,289.5,81.5"></path><path id="kity_path_95" fill="none" stroke="rgb(115, 161, 191)" stroke-width="1" d="M273.5,128.5C281.5,128.5,281.5,115.5,289.5,115.5"></path><path id="kity_path_103" fill="none" stroke="rgb(115, 161, 191)" stroke-width="1" d="M273.5,128.5C281.5,128.5,281.5,141.5,289.5,141.5"></path><path id="kity_path_111" fill="none" stroke="rgb(115, 161, 191)" stroke-width="1" d="M273.5,201.5C281.5,201.5,281.5,175.5,289.5,175.5"></path><path id="kity_path_119" fill="none" stroke="rgb(115, 161, 191)" stroke-width="1" d="M273.5,201.5C281.5,201.5,281.5,201.5,289.5,201.5"></path><path id="kity_path_127" fill="none" stroke="rgb(115, 161, 191)" stroke-width="1" d="M273.5,201.5C281.5,201.5,281.5,227.5,289.5,227.5"></path><path id="kity_path_135" fill="none" stroke="rgb(115, 161, 191)" stroke-width="1" d="M273.5,287.5C281.5,287.5,281.5,261.5,289.5,261.5"></path><path id="kity_path_143" fill="none" stroke="rgb(115, 161, 191)" stroke-width="1" d="M273.5,287.5C281.5,287.5,281.5,287.5,289.5,287.5"></path><path id="kity_path_151" fill="none" stroke="rgb(115, 161, 191)" stroke-width="1" d="M273.5,287.5C281.5,287.5,281.5,313.5,289.5,313.5"></path><path id="kity_path_159" fill="none" stroke="rgb(115, 161, 191)" stroke-width="1" d="M271.5,445.5C279.5,445.5,279.5,374.5,287.5,374.5"></path><path id="kity_path_167" fill="none" stroke="rgb(115, 161, 191)" stroke-width="1" d="M271.5,445.5C279.5,445.5,279.5,452.5,287.5,452.5"></path><path id="kity_path_175" fill="none" stroke="rgb(115, 161, 191)" stroke-width="1" d="M271.5,445.5C279.5,445.5,279.5,517.5,287.5,517.5"></path><path id="kity_path_183" fill="none" stroke="rgb(115, 161, 191)" stroke-width="1" d="M370.5,374.5C378.5,374.5,378.5,348.5,386.5,348.5"></path><path id="kity_path_191" fill="none" stroke="rgb(115, 161, 191)" stroke-width="1" d="M370.5,374.5C378.5,374.5,378.5,374.5,386.5,374.5"></path><path id="kity_path_199" fill="none" stroke="rgb(115, 161, 191)" stroke-width="1" d="M370.5,374.5C378.5,374.5,378.5,400.5,386.5,400.5"></path><path id="kity_path_222" fill="none" stroke="rgb(115, 161, 191)" stroke-width="1" d="M358.5,452.5C366.5,452.5,366.5,426.5,374.5,426.5"></path><path id="kity_path_230" fill="none" stroke="rgb(115, 161, 191)" stroke-width="1" d="M358.5,452.5C366.5,452.5,366.5,452.5,374.5,452.5"></path><path id="kity_path_238" fill="none" stroke="rgb(115, 161, 191)" stroke-width="1" d="M358.5,452.5C366.5,452.5,366.5,478.5,374.5,478.5"></path><path id="kity_path_246" fill="none" stroke="rgb(115, 161, 191)" stroke-width="1" d="M442.5,517.5C450.5,517.5,450.5,504.5,458.5,504.5"></path><path id="kity_path_254" fill="none" stroke="rgb(115, 161, 191)" stroke-width="1" d="M442.5,517.5C450.5,517.5,450.5,530.5,458.5,530.5"></path></g><g id="minder_node1"><path id="node_outline1" fill="rgb(115, 161, 191)" stroke="rgb(115, 161, 191)" d="M25.5,236.5h98a5,5,0,0,1,5,5v18a5,5,0,0,1,-5,5h-98a5,5,0,0,1,-5,-5v-18a5,5,0,0,1,5,-5z" stroke-width="3"></path><g id="node_text1" fill="white"><text id="kity_text_22" text-rendering="inherit" font-size="16" dy=".8em" y="240.09999990463257" x="32.5">交易决策·指</text></g></g><g id="kity_g_12"><path id="kity_path_13" fill="none" stroke="none" d="M32.5,250.5h0v0h0z"></path></g><g id="kity_g_14"><path id="kity_path_15" fill="none" stroke="none" d="M32.5,250.5h0v0h0z"></path><path id="kity_path_16" fill="none" stroke="none"></path></g><g id="minder_node2"><g id="node_expander1" style="cursor: pointer;"><path id="kity_path_36" fill="white" stroke="gray" d="M145.5000019967556,55.49999709427357A6,6,0,1,1,133.5000019967556,55.49999709427357A6,6,0,1,1,145.5000019967556,55.49999709427357"></path><path id="kity_path_37" fill="none" stroke="gray" d="M135.0000019967556,55.49999709427357L144.0000019967556,55.49999709427357"></path></g><path id="node_outline2" fill="rgb(238, 243, 246)" stroke="rgb(115, 161, 191)" d="M149.5000019967556,42.49999709427357h121a3,3,0,0,1,3,3v20a3,3,0,0,1,-3,3h-121a3,3,0,0,1,-3,-3v-20a3,3,0,0,1,3,-3z" stroke-width="1"></path><g id="node_text2" fill="black"><text id="kity_text_33" text-rendering="inherit" font-size="14" dy=".8em" y="46.39999695122242" x="166.5000019967556">MACD的概念</text></g></g><g id="minder_node3"><g id="node_expander2" style="cursor: pointer;"><path id="kity_path_44" fill="white" stroke="gray" d="M145.5000019967556,128.49999818205833A6,6,0,1,1,133.5000019967556,128.49999818205833A6,6,0,1,1,145.5000019967556,128.49999818205833"></path><path id="kity_path_45" fill="none" stroke="gray" d="M135.0000019967556,128.49999818205833L144.0000019967556,128.49999818205833"></path></g><path id="node_outline3" fill="rgb(238, 243, 246)" stroke="rgb(115, 161, 191)" d="M149.5000019967556,115.49999818205833h121a3,3,0,0,1,3,3v20a3,3,0,0,1,-3,3h-121a3,3,0,0,1,-3,-3v-20a3,3,0,0,1,3,-3z" stroke-width="1"></path><g id="node_text3" fill="black"><text id="kity_text_41" text-rendering="inherit" font-size="14" dy=".8em" y="119.39999803900719" x="166.5000019967556">MACD与均线</text></g></g><g id="minder_node4"><g id="node_expander3" style="cursor: pointer;"><path id="kity_path_52" fill="white" stroke="gray" d="M145.5000019967556,201.4999992698431A6,6,0,1,1,133.5000019967556,201.4999992698431A6,6,0,1,1,145.5000019967556,201.4999992698431"></path><path id="kity_path_53" fill="none" stroke="gray" d="M135.0000019967556,201.4999992698431L144.0000019967556,201.4999992698431"></path></g><path id="node_outline4" fill="rgb(238, 243, 246)" stroke="rgb(115, 161, 191)" d="M149.5000019967556,188.4999992698431h121a3,3,0,0,1,3,3v20a3,3,0,0,1,-3,3h-121a3,3,0,0,1,-3,-3v-20a3,3,0,0,1,3,-3z" stroke-width="1"></path><g id="node_text4" fill="black"><text id="kity_text_49" text-rendering="inherit" font-size="14" dy=".8em" y="192.39999912679195" x="166.5000019967556">MACD的形态</text></g></g><g id="minder_node5"><g id="node_expander4" style="cursor: pointer;"><path id="kity_path_60" fill="white" stroke="gray" d="M145.5000019967556,287.50000055134296A6,6,0,1,1,133.5000019967556,287.50000055134296A6,6,0,1,1,145.5000019967556,287.50000055134296"></path><path id="kity_path_61" fill="none" stroke="gray" d="M135.0000019967556,287.50000055134296L144.0000019967556,287.50000055134296"></path></g><path id="node_outline5" fill="rgb(238, 243, 246)" stroke="rgb(115, 161, 191)" d="M149.5000019967556,274.50000055134296h121a3,3,0,0,1,3,3v20a3,3,0,0,1,-3,3h-121a3,3,0,0,1,-3,-3v-20a3,3,0,0,1,3,-3z" stroke-width="1"></path><g id="node_text5" fill="black"><text id="kity_text_57" text-rendering="inherit" font-size="14" dy=".8em" y="278.4000004082918" x="166.5000019967556">MACD的柱子</text></g></g><g id="minder_node6"><g id="node_expander5" style="cursor: pointer;"><path id="kity_path_68" fill="white" stroke="gray" d="M145.5000019967556,445.50000290572643A6,6,0,1,1,133.5000019967556,445.50000290572643A6,6,0,1,1,145.5000019967556,445.50000290572643"></path><path id="kity_path_69" fill="none" stroke="gray" d="M135.0000019967556,445.50000290572643L144.0000019967556,445.50000290572643"></path></g><path id="node_outline6" fill="rgb(238, 243, 246)" stroke="rgb(115, 161, 191)" d="M149.5000019967556,432.50000290572643h119a3,3,0,0,1,3,3v20a3,3,0,0,1,-3,3h-119a3,3,0,0,1,-3,-3v-20a3,3,0,0,1,3,-3z" stroke-width="1"></path><g id="node_text6" fill="black"><text id="kity_text_65" text-rendering="inherit" font-size="14" dy=".8em" y="436.4000027626753" x="166.5000019967556">MACD与套利</text></g></g><g id="minder_node7"><g id="node_expander6" style="cursor: pointer;" display="none"><path id="kity_path_76" fill="white" stroke="gray" d="M289.50000390410423,29.499996706843376A6,6,0,1,1,277.50000390410423,29.499996706843376A6,6,0,1,1,289.50000390410423,29.499996706843376"></path><path id="kity_path_77" fill="none" stroke="gray"></path></g><path id="node_outline7" fill="none" stroke="none" d="M294.50000390410423,20.499996706843376h25a5,5,0,0,1,5,5v8a5,5,0,0,1,-5,5h-25a5,5,0,0,1,-5,-5v-8a5,5,0,0,1,5,-5z" stroke-width="3"></path><g id="node_text7" fill="black"><text id="kity_text_73" text-rendering="inherit" font-size="12" dy=".8em" y="21.699996635317802" x="294.50000390410423">由来</text></g></g><g id="minder_node8"><g id="node_expander7" style="cursor: pointer;" display="none"><path id="kity_path_84" fill="white" stroke="gray" d="M289.50000390410423,55.49999709427357A6,6,0,1,1,277.50000390410423,55.49999709427357A6,6,0,1,1,289.50000390410423,55.49999709427357"></path><path id="kity_path_85" fill="none" stroke="gray"></path></g><path id="node_outline8" fill="none" stroke="none" d="M294.50000390410423,46.49999709427357h26a5,5,0,0,1,5,5v8a5,5,0,0,1,-5,5h-26a5,5,0,0,1,-5,-5v-8a5,5,0,0,1,5,-5z" stroke-width="3"></path><g id="node_text8" fill="black"><text id="kity_text_81" text-rendering="inherit" font-size="12" dy=".8em" y="47.69999702274799" x="294.50000390410423">公式</text></g></g><g id="minder_node9"><g id="node_expander8" style="cursor: pointer;" display="none"><path id="kity_path_92" fill="white" stroke="gray" d="M289.50000390410423,81.49999748170379A6,6,0,1,1,277.50000390410423,81.49999748170379A6,6,0,1,1,289.50000390410423,81.49999748170379"></path><path id="kity_path_93" fill="none" stroke="gray"></path></g><path id="node_outline9" fill="none" stroke="none" d="M294.50000390410423,72.49999748170379h25a5,5,0,0,1,5,5v8a5,5,0,0,1,-5,5h-25a5,5,0,0,1,-5,-5v-8a5,5,0,0,1,5,-5z" stroke-width="3"></path><g id="node_text9" fill="black"><text id="kity_text_89" text-rendering="inherit" font-size="12" dy=".8em" y="73.69999741017821" x="294.50000390410423">参数</text></g></g><g id="minder_node10"><g id="node_expander9" style="cursor: pointer;" display="none"><path id="kity_path_100" fill="white" stroke="gray" d="M289.50000390410423,115.49999798834324A6,6,0,1,1,277.50000390410423,115.49999798834324A6,6,0,1,1,289.50000390410423,115.49999798834324"></path><path id="kity_path_101" fill="none" stroke="gray"></path></g><path id="node_outline10" fill="none" stroke="none" d="M294.50000390410423,106.49999798834324h50a5,5,0,0,1,5,5v8a5,5,0,0,1,-5,5h-50a5,5,0,0,1,-5,-5v-8a5,5,0,0,1,5,-5z" stroke-width="3"></path><g id="node_text10" fill="black"><text id="kity_text_97" text-rendering="inherit" font-size="12" dy=".8em" y="107.69999791681767" x="294.50000390410423">原理揭秘</text></g></g><g id="minder_node11"><g id="node_expander10" style="cursor: pointer;" display="none"><path id="kity_path_108" fill="white" stroke="gray" d="M289.50000390410423,141.49999837577343A6,6,0,1,1,277.50000390410423,141.49999837577343A6,6,0,1,1,289.50000390410423,141.49999837577343"></path><path id="kity_path_109" fill="none" stroke="gray"></path></g><path id="node_outline11" fill="none" stroke="none" d="M294.50000390410423,132.49999837577343h92a5,5,0,0,1,5,5v8a5,5,0,0,1,-5,5h-92a5,5,0,0,1,-5,-5v-8a5,5,0,0,1,5,-5z" stroke-width="3"></path><g id="node_text11" fill="black"><text id="kity_text_105" text-rendering="inherit" font-size="12" dy=".8em" y="133.69999830424786" x="294.50000390410423">MACD的0轴内涵</text></g></g><g id="minder_node12"><g id="node_expander11" style="cursor: pointer;" display="none"><path id="kity_path_116" fill="white" stroke="gray" d="M289.50000390410423,175.4999988824129A6,6,0,1,1,277.50000390410423,175.4999988824129A6,6,0,1,1,289.50000390410423,175.4999988824129"></path><path id="kity_path_117" fill="none" stroke="gray"></path></g><path id="node_outline12" fill="none" stroke="none" d="M294.50000390410423,166.4999988824129h60a5,5,0,0,1,5,5v8a5,5,0,0,1,-5,5h-60a5,5,0,0,1,-5,-5v-8a5,5,0,0,1,5,-5z" stroke-width="3"></path><g id="node_text12" fill="black"><text id="kity_text_113" text-rendering="inherit" font-size="12" dy=".8em" y="167.69999881088734" x="294.50000390410423">背离的威力</text></g></g><g id="minder_node13"><g id="node_expander12" style="cursor: pointer;" display="none"><path id="kity_path_124" fill="white" stroke="gray" d="M289.50000390410423,201.4999992698431A6,6,0,1,1,277.50000390410423,201.4999992698431A6,6,0,1,1,289.50000390410423,201.4999992698431"></path><path id="kity_path_125" fill="none" stroke="gray"></path></g><path id="node_outline13" fill="none" stroke="none" d="M294.50000390410423,192.4999992698431h111a5,5,0,0,1,5,5v8a5,5,0,0,1,-5,5h-111a5,5,0,0,1,-5,-5v-8a5,5,0,0,1,5,-5z" stroke-width="3"></path><g id="node_text13" fill="black"><text id="kity_text_121" text-rendering="inherit" font-size="12" dy=".8em" y="193.69999919831753" x="294.50000390410423">2B法则与背离的关系</text></g></g><g id="minder_node14"><g id="node_expander13" style="cursor: pointer;" display="none"><path id="kity_path_132" fill="white" stroke="gray" d="M289.50000390410423,227.4999996572733A6,6,0,1,1,277.50000390410423,227.4999996572733A6,6,0,1,1,289.50000390410423,227.4999996572733"></path><path id="kity_path_133" fill="none" stroke="gray"></path></g><path id="node_outline14" fill="none" stroke="none" d="M294.50000390410423,218.4999996572733h109a5,5,0,0,1,5,5v8a5,5,0,0,1,-5,5h-109a5,5,0,0,1,-5,-5v-8a5,5,0,0,1,5,-5z" stroke-width="3"></path><g id="node_text14" fill="black"><text id="kity_text_129" text-rendering="inherit" font-size="12" dy=".8em" y="219.69999958574772" x="294.50000390410423">MACD与波浪的关系</text></g></g><g id="minder_node15"><g id="node_expander14" style="cursor: pointer;" display="none"><path id="kity_path_140" fill="white" stroke="gray" d="M289.50000390410423,261.5000001639128A6,6,0,1,1,277.50000390410423,261.5000001639128A6,6,0,1,1,289.50000390410423,261.5000001639128"></path><path id="kity_path_141" fill="none" stroke="gray"></path></g><path id="node_outline15" fill="none" stroke="none" d="M294.50000390410423,252.50000016391277h122a5,5,0,0,1,5,5v8a5,5,0,0,1,-5,5h-122a5,5,0,0,1,-5,-5v-8a5,5,0,0,1,5,-5z" stroke-width="3"></path><g id="node_text15" fill="black"><text id="kity_text_137" text-rendering="inherit" font-size="12" dy=".8em" y="253.7000000923872" x="294.50000390410423">MACD的四大经典柱子</text></g></g><g id="minder_node16"><g id="node_expander15" style="cursor: pointer;" display="none"><path id="kity_path_148" fill="white" stroke="gray" d="M289.50000390410423,287.50000055134296A6,6,0,1,1,277.50000390410423,287.50000055134296A6,6,0,1,1,289.50000390410423,287.50000055134296"></path><path id="kity_path_149" fill="none" stroke="gray"></path></g><path id="node_outline16" fill="none" stroke="none" d="M294.50000390410423,278.50000055134296h122a5,5,0,0,1,5,5v8a5,5,0,0,1,-5,5h-122a5,5,0,0,1,-5,-5v-8a5,5,0,0,1,5,-5z" stroke-width="3"></path><g id="node_text16" fill="black"><text id="kity_text_145" text-rendering="inherit" font-size="12" dy=".8em" y="279.7000004798174" x="294.50000390410423">MACD的多空临界状态</text></g></g><g id="minder_node17"><g id="node_expander16" style="cursor: pointer;" display="none"><path id="kity_path_156" fill="white" stroke="gray" d="M289.50000390410423,313.50000093877316A6,6,0,1,1,277.50000390410423,313.50000093877316A6,6,0,1,1,289.50000390410423,313.50000093877316"></path><path id="kity_path_157" fill="none" stroke="gray"></path></g><path id="node_outline17" fill="none" stroke="none" d="M294.50000390410423,304.50000093877316h122a5,5,0,0,1,5,5v8a5,5,0,0,1,-5,5h-122a5,5,0,0,1,-5,-5v-8a5,5,0,0,1,5,-5z" stroke-width="3"></path><g id="node_text17" fill="black"><text id="kity_text_153" text-rendering="inherit" font-size="12" dy=".8em" y="305.7000008672476" x="294.50000390410423">MACD的多空临界指标</text></g></g><g id="minder_node18"><g id="node_expander17" style="cursor: pointer;"><path id="kity_path_164" fill="white" stroke="gray" d="M287.5000038743019,374.500001847744A6,6,0,1,1,275.5000038743019,374.500001847744A6,6,0,1,1,287.5000038743019,374.500001847744"></path><path id="kity_path_165" fill="none" stroke="gray" d="M277.0000038743019,374.500001847744L286.0000038743019,374.500001847744"></path></g><path id="node_outline18" fill="none" stroke="none" d="M292.5000038743019,365.500001847744h73a5,5,0,0,1,5,5v8a5,5,0,0,1,-5,5h-73a5,5,0,0,1,-5,-5v-8a5,5,0,0,1,5,-5z" stroke-width="3"></path><g id="node_text18" fill="black"><text id="kity_text_161" text-rendering="inherit" font-size="12" dy=".8em" y="366.7000017762184" x="292.5000038743019">”三利“公式</text></g></g><g id="minder_node19"><g id="node_expander18" style="cursor: pointer;"><path id="kity_path_172" fill="white" stroke="gray" d="M287.5000038743019,452.50000301003456A6,6,0,1,1,275.5000038743019,452.50000301003456A6,6,0,1,1,287.5000038743019,452.50000301003456"></path><path id="kity_path_173" fill="none" stroke="gray" d="M277.0000038743019,452.50000301003456L286.0000038743019,452.50000301003456"></path></g><path id="node_outline19" fill="none" stroke="none" d="M292.5000038743019,443.50000301003456h61a5,5,0,0,1,5,5v8a5,5,0,0,1,-5,5h-61a5,5,0,0,1,-5,-5v-8a5,5,0,0,1,5,-5z" stroke-width="3"></path><g id="node_text19" fill="black"><text id="kity_text_169" text-rendering="inherit" font-size="12" dy=".8em" y="444.700002938509" x="292.5000038743019">投机和套利</text></g></g><g id="minder_node20"><g id="node_expander19" style="cursor: pointer;"><path id="kity_path_180" fill="white" stroke="gray" d="M287.5000038743019,517.50000397861A6,6,0,1,1,275.5000038743019,517.50000397861A6,6,0,1,1,287.5000038743019,517.50000397861"></path><path id="kity_path_181" fill="none" stroke="gray" d="M277.0000038743019,517.50000397861L286.0000038743019,517.50000397861"></path></g><path id="node_outline20" fill="none" stroke="none" d="M292.5000038743019,508.50000397861004h145a5,5,0,0,1,5,5v8a5,5,0,0,1,-5,5h-145a5,5,0,0,1,-5,-5v-8a5,5,0,0,1,5,-5z" stroke-width="3"></path><g id="node_text20" fill="black"><text id="kity_text_177" text-rendering="inherit" font-size="12" dy=".8em" y="509.70000390708447" x="292.5000038743019">MACD、投机和套利的关系</text></g></g><g id="minder_node21"><g id="node_expander20" style="cursor: pointer;" display="none"><path id="kity_path_188" fill="white" stroke="gray" d="M386.50000534951687,348.5000014603138A6,6,0,1,1,374.50000534951687,348.5000014603138A6,6,0,1,1,386.50000534951687,348.5000014603138"></path><path id="kity_path_189" fill="none" stroke="gray"></path></g><path id="node_outline21" fill="none" stroke="none" d="M391.50000534951687,339.5000014603138h43a5,5,0,0,1,5,5v8a5,5,0,0,1,-5,5h-43a5,5,0,0,1,-5,-5v-8a5,5,0,0,1,5,-5z" stroke-width="3"></path><g id="node_text21" fill="black"><text id="kity_text_185" text-rendering="inherit" font-size="12" dy=".8em" y="340.7000013887882" x="391.50000534951687">1、复利</text></g><g id="node_priority1" display="none"><path id="kity_path_208" fill="#840023" stroke="none" d="M367.00000534951687,352.0000014603138c0,3.866,3.134,7,7,7h6c3.866,0,7,-3.134,7,-7V346.0000014603138H367.00000534951687V352.0000014603138z"></path><path id="kity_path_209" fill="#FF1200" stroke="none" d="M387.00000534951687,349.0000014603138c0,3.866,-3.134,7,-7,7H374.00000534951687c-3.866,0,-7,-3.134,-7,-7V346.0000014603138c0,-3.866,3.134,-7,7,-7h6c3.866,0,7,3.134,7,7V349.0000014603138z" opacity="0.8"></path><text id="kity_text_210" text-rendering="geometricPrecision" x="376.00000534951687" y="348.5000014603138" text-anchor="middle" font-style="italic" font-size="12" fill="white" dy="5">1</text></g></g><g id="minder_node22"><g id="node_expander21" style="cursor: pointer;" display="none"><path id="kity_path_196" fill="white" stroke="gray" d="M386.50000534951687,374.500001847744A6,6,0,1,1,374.50000534951687,374.500001847744A6,6,0,1,1,386.50000534951687,374.500001847744"></path><path id="kity_path_197" fill="none" stroke="gray"></path></g><path id="node_outline22" fill="none" stroke="none" d="M391.50000534951687,365.500001847744h43a5,5,0,0,1,5,5v8a5,5,0,0,1,-5,5h-43a5,5,0,0,1,-5,-5v-8a5,5,0,0,1,5,-5z" stroke-width="3"></path><g id="node_text22" fill="black"><text id="kity_text_193" text-rendering="inherit" font-size="12" dy=".8em" y="366.7000017762184" x="391.50000534951687">2、凯利</text></g><g id="node_priority2" display="none"><path id="kity_path_213" fill="#01467F" stroke="none" d="M367.00000534951687,378.000001847744c0,3.866,3.134,7,7,7h6c3.866,0,7,-3.134,7,-7V372.000001847744H367.00000534951687V378.000001847744z"></path><path id="kity_path_214" fill="#0074FF" stroke="none" d="M387.00000534951687,375.000001847744c0,3.866,-3.134,7,-7,7H374.00000534951687c-3.866,0,-7,-3.134,-7,-7V372.000001847744c0,-3.866,3.134,-7,7,-7h6c3.866,0,7,3.134,7,7V375.000001847744z" opacity="0.8"></path><text id="kity_text_215" text-rendering="geometricPrecision" x="376.00000534951687" y="374.500001847744" text-anchor="middle" font-style="italic" font-size="12" fill="white" dy="5">2</text></g></g><g id="minder_node23"><g id="node_expander22" style="cursor: pointer;" display="none"><path id="kity_path_204" fill="white" stroke="gray" d="M386.50000534951687,400.5000022351742A6,6,0,1,1,374.50000534951687,400.5000022351742A6,6,0,1,1,386.50000534951687,400.5000022351742"></path><path id="kity_path_205" fill="none" stroke="gray"></path></g><path id="node_outline23" fill="none" stroke="none" d="M391.50000534951687,391.5000022351742h43a5,5,0,0,1,5,5v8a5,5,0,0,1,-5,5h-43a5,5,0,0,1,-5,-5v-8a5,5,0,0,1,5,-5z" stroke-width="3"></path><g id="node_text23" fill="black"><text id="kity_text_201" text-rendering="inherit" font-size="12" dy=".8em" y="392.7000021636486" x="391.50000534951687">3、套利</text></g><g id="node_priority3" display="none"><path id="kity_path_218" fill="#006300" stroke="none" d="M367.00000534951687,404.0000022351742c0,3.866,3.134,7,7,7h6c3.866,0,7,-3.134,7,-7V398.0000022351742H367.00000534951687V404.0000022351742z"></path><path id="kity_path_219" fill="#00AF00" stroke="none" d="M387.00000534951687,401.0000022351742c0,3.866,-3.134,7,-7,7H374.00000534951687c-3.866,0,-7,-3.134,-7,-7V398.0000022351742c0,-3.866,3.134,-7,7,-7h6c3.866,0,7,3.134,7,7V401.0000022351742z" opacity="0.8"></path><text id="kity_text_220" text-rendering="geometricPrecision" x="376.00000534951687" y="400.5000022351742" text-anchor="middle" font-style="italic" font-size="12" fill="white" dy="5">3</text></g></g><g id="minder_node24"><g id="node_expander23" style="cursor: pointer;" display="none"><path id="kity_path_227" fill="white" stroke="gray" d="M374.50000517070293,426.50000262260437A6,6,0,1,1,362.50000517070293,426.50000262260437A6,6,0,1,1,374.50000517070293,426.50000262260437"></path><path id="kity_path_228" fill="none" stroke="gray"></path></g><path id="node_outline24" fill="none" stroke="none" d="M379.50000517070293,417.50000262260437h49a5,5,0,0,1,5,5v8a5,5,0,0,1,-5,5h-49a5,5,0,0,1,-5,-5v-8a5,5,0,0,1,5,-5z" stroke-width="3"></path><g id="node_text24" fill="black"><text id="kity_text_224" text-rendering="inherit" font-size="12" dy=".8em" y="418.7000025510788" x="379.50000517070293">投机交易</text></g></g><g id="minder_node25"><g id="node_expander24" style="cursor: pointer;" display="none"><path id="kity_path_235" fill="white" stroke="gray" d="M374.50000517070293,452.50000301003456A6,6,0,1,1,362.50000517070293,452.50000301003456A6,6,0,1,1,374.50000517070293,452.50000301003456"></path><path id="kity_path_236" fill="none" stroke="gray"></path></g><path id="node_outline25" fill="none" stroke="none" d="M379.50000517070293,443.50000301003456h49a5,5,0,0,1,5,5v8a5,5,0,0,1,-5,5h-49a5,5,0,0,1,-5,-5v-8a5,5,0,0,1,5,-5z" stroke-width="3"></path><g id="node_text25" fill="black"><text id="kity_text_232" text-rendering="inherit" font-size="12" dy=".8em" y="444.700002938509" x="379.50000517070293">套利交易</text></g></g><g id="minder_node26"><g id="node_expander25" style="cursor: pointer;" display="none"><path id="kity_path_243" fill="white" stroke="gray" d="M374.50000517070293,478.50000339746475A6,6,0,1,1,362.50000517070293,478.50000339746475A6,6,0,1,1,374.50000517070293,478.50000339746475"></path><path id="kity_path_244" fill="none" stroke="gray"></path></g><path id="node_outline26" fill="none" stroke="none" d="M379.50000517070293,469.50000339746475h97a5,5,0,0,1,5,5v8a5,5,0,0,1,-5,5h-97a5,5,0,0,1,-5,-5v-8a5,5,0,0,1,5,-5z" stroke-width="3"></path><g id="node_text26" fill="black"><text id="kity_text_240" text-rendering="inherit" font-size="12" dy=".8em" y="470.7000033259392" x="379.50000517070293">投机和套利的区别</text></g></g><g id="minder_node27"><g id="node_expander26" style="cursor: pointer;" display="none"><path id="kity_path_251" fill="white" stroke="gray" d="M458.5000064224005,504.50000378489494A6,6,0,1,1,446.5000064224005,504.50000378489494A6,6,0,1,1,458.5000064224005,504.50000378489494"></path><path id="kity_path_252" fill="none" stroke="gray"></path></g><path id="node_outline27" fill="none" stroke="none" d="M463.5000064224005,495.50000378489494h91a5,5,0,0,1,5,5v8a5,5,0,0,1,-5,5h-91a5,5,0,0,1,-5,-5v-8a5,5,0,0,1,5,-5z" stroke-width="3"></path><g id="node_text27" fill="black"><text id="kity_text_248" text-rendering="inherit" font-size="12" dy=".8em" y="496.70000371336937" x="463.5000064224005">1、价差趋势预测</text></g></g><g id="minder_node28"><g id="node_expander27" style="cursor: pointer;" display="none"><path id="kity_path_259" fill="white" stroke="gray" d="M458.5000064224005,530.5000041723251A6,6,0,1,1,446.5000064224005,530.5000041723251A6,6,0,1,1,458.5000064224005,530.5000041723251"></path><path id="kity_path_260" fill="none" stroke="gray"></path></g><path id="node_outline28" fill="none" stroke="none" d="M463.5000064224005,521.5000041723251h92a5,5,0,0,1,5,5v8a5,5,0,0,1,-5,5h-92a5,5,0,0,1,-5,-5v-8a5,5,0,0,1,5,-5z" stroke-width="3"></path><g id="node_text28" fill="black"><text id="kity_text_256" text-rendering="inherit" font-size="12" dy=".8em" y="522.7000041007996" x="463.5000064224005">2、价差反推价格</text></g></g></g></g></svg>