<svg id="kity_svg_6" xmlns="http://www.w3.org/2000/svg" xmlns:xlink="http://www.w3.org/1999/xlink" version="1.1" width="443" height="660" style="background: rgb(251, 251, 251); visibility: visible;" viewBox="0 0 443 660"><defs id="kity_defs_7"><linearGradient id="kity_linearGradient_17" x1="0" y1="0" x2="0" y2="1"><stop id="kity_stop_18" offset="0" stop-color="rgb(255, 255, 255)"></stop><stop id="kity_stop_19" offset="1" stop-color="rgb(204, 204, 204)"></stop></linearGradient><marker id="kity_marker_2" orient="auto" refX="6" refY="0" viewBox="-7 -7 14 14" markerWidth="7" markerHeight="7" markerUnits="userSpaceOnUse"><path id="kity_path_3" fill="rgb(115, 161, 191)" stroke="none" d="M6,0A6,6,0,1,1,-6,0A6,6,0,1,1,6,0"></path></marker></defs><g id="kity_g_8"><g id="minder1" text-rendering="optimize-speed"><g id="minder_connect_group1"><path id="kity_path_31" fill="none" stroke="rgb(115, 161, 191)" stroke-width="1" d="M75,345.5A70.5,208,0,0,1,145.5,137.5"></path><path id="kity_path_39" fill="none" stroke="rgb(115, 161, 191)" stroke-width="1" d="M75,345.5A70.5,55,0,0,1,145.5,290.5"></path><path id="kity_path_47" fill="none" stroke="rgb(115, 161, 191)" stroke-width="1" d="M75,345.5A70.5,70,0,0,0,145.5,415.5"></path><path id="kity_path_55" fill="none" stroke="rgb(115, 161, 191)" stroke-width="1" d="M75,345.5A70.5,208,0,0,0,145.5,553.5"></path><path id="kity_path_63" fill="none" stroke="rgb(115, 161, 191)" stroke-width="1" d="M259.5,137.5C267.5,137.5,267.5,84.5,275.5,84.5"></path><path id="kity_path_71" fill="none" stroke="rgb(115, 161, 191)" stroke-width="1" d="M259.5,137.5C267.5,137.5,267.5,165.5,275.5,165.5"></path><path id="kity_path_79" fill="none" stroke="rgb(115, 161, 191)" stroke-width="1" d="M259.5,137.5C267.5,137.5,267.5,191.5,275.5,191.5"></path><path id="kity_path_87" fill="none" stroke="rgb(115, 161, 191)" stroke-width="1" d="M310.5,84.5C318.5,84.5,318.5,33.5,326.5,33.5"></path><path id="kity_path_100" fill="none" stroke="rgb(115, 161, 191)" stroke-width="1" d="M310.5,84.5C318.5,84.5,318.5,67.5,326.5,67.5"></path><path id="kity_path_113" fill="none" stroke="rgb(115, 161, 191)" stroke-width="1" d="M310.5,84.5C318.5,84.5,318.5,101.5,326.5,101.5"></path><path id="kity_path_126" fill="none" stroke="rgb(115, 161, 191)" stroke-width="1" d="M310.5,84.5C318.5,84.5,318.5,135.5,326.5,135.5"></path><path id="kity_path_139" fill="none" stroke="rgb(115, 161, 191)" stroke-width="1" d="M259.5,290.5C267.5,290.5,267.5,238.5,275.5,238.5"></path><path id="kity_path_147" fill="none" stroke="rgb(115, 161, 191)" stroke-width="1" d="M259.5,290.5C267.5,290.5,267.5,290.5,275.5,290.5"></path><path id="kity_path_155" fill="none" stroke="rgb(115, 161, 191)" stroke-width="1" d="M259.5,290.5C267.5,290.5,267.5,342.5,275.5,342.5"></path><path id="kity_path_163" fill="none" stroke="rgb(115, 161, 191)" stroke-width="1" d="M346.5,238.5C354.5,238.5,354.5,225.5,362.5,225.5"></path><path id="kity_path_171" fill="none" stroke="rgb(115, 161, 191)" stroke-width="1" d="M346.5,238.5C354.5,238.5,354.5,251.5,362.5,251.5"></path><path id="kity_path_179" fill="none" stroke="rgb(115, 161, 191)" stroke-width="1" d="M347.5,290.5C355.5,290.5,355.5,277.5,363.5,277.5"></path><path id="kity_path_187" fill="none" stroke="rgb(115, 161, 191)" stroke-width="1" d="M347.5,290.5C355.5,290.5,355.5,303.5,363.5,303.5"></path><path id="kity_path_195" fill="none" stroke="rgb(115, 161, 191)" stroke-width="1" d="M346.5,342.5C354.5,342.5,354.5,329.5,362.5,329.5"></path><path id="kity_path_203" fill="none" stroke="rgb(115, 161, 191)" stroke-width="1" d="M346.5,342.5C354.5,342.5,354.5,355.5,362.5,355.5"></path><path id="kity_path_211" fill="none" stroke="rgb(115, 161, 191)" stroke-width="1" d="M259.5,415.5C267.5,415.5,267.5,389.5,275.5,389.5"></path><path id="kity_path_219" fill="none" stroke="rgb(115, 161, 191)" stroke-width="1" d="M259.5,415.5C267.5,415.5,267.5,415.5,275.5,415.5"></path><path id="kity_path_227" fill="none" stroke="rgb(115, 161, 191)" stroke-width="1" d="M259.5,415.5C267.5,415.5,267.5,441.5,275.5,441.5"></path><path id="kity_path_235" fill="none" stroke="rgb(115, 161, 191)" stroke-width="1" d="M258.5,553.5C266.5,553.5,266.5,475.5,274.5,475.5"></path><path id="kity_path_251" fill="none" stroke="rgb(115, 161, 191)" stroke-width="1" d="M258.5,553.5C266.5,553.5,266.5,501.5,274.5,501.5"></path><path id="kity_path_259" fill="none" stroke="rgb(115, 161, 191)" stroke-width="1" d="M258.5,553.5C266.5,553.5,266.5,527.5,274.5,527.5"></path><path id="kity_path_267" fill="none" stroke="rgb(115, 161, 191)" stroke-width="1" d="M258.5,553.5C266.5,553.5,266.5,553.5,274.5,553.5"></path><path id="kity_path_275" fill="none" stroke="rgb(115, 161, 191)" stroke-width="1" d="M258.5,553.5C266.5,553.5,266.5,579.5,274.5,579.5"></path><path id="kity_path_283" fill="none" stroke="rgb(115, 161, 191)" stroke-width="1" d="M258.5,553.5C266.5,553.5,266.5,605.5,274.5,605.5"></path><path id="kity_path_291" fill="none" stroke="rgb(115, 161, 191)" stroke-width="1" d="M258.5,553.5C266.5,553.5,266.5,631.5,274.5,631.5"></path></g><g id="minder_node1"><path id="node_outline1" fill="rgb(115, 161, 191)" stroke="rgb(115, 161, 191)" d="M25.5,331.5h99a5,5,0,0,1,5,5v18a5,5,0,0,1,-5,5h-99a5,5,0,0,1,-5,-5v-18a5,5,0,0,1,5,-5z" stroke-width="3"></path><g id="node_text1" fill="white"><text id="kity_text_22" text-rendering="inherit" font-size="16" dy=".8em" y="335.09999990463257" x="32.5">交易决策·趋</text></g></g><g id="kity_g_12"><path id="kity_path_13" fill="none" stroke="none" d="M32.5,345.5h0v0h0z"></path></g><g id="kity_g_14"><path id="kity_path_15" fill="none" stroke="none" d="M32.5,345.5h0v0h0z"></path><path id="kity_path_16" fill="none" stroke="none"></path></g><g id="minder_node2"><g id="node_expander1" style="cursor: pointer;"><path id="kity_path_36" fill="white" stroke="gray" d="M146.50000201165676,137.49999690055847A6,6,0,1,1,134.50000201165676,137.49999690055847A6,6,0,1,1,146.50000201165676,137.49999690055847"></path><path id="kity_path_37" fill="none" stroke="gray" d="M136.00000201165676,137.49999690055847L145.00000201165676,137.49999690055847"></path></g><path id="node_outline2" fill="rgb(238, 243, 246)" stroke="rgb(115, 161, 191)" d="M150.50000201165676,124.49999690055847h106a3,3,0,0,1,3,3v20a3,3,0,0,1,-3,3h-106a3,3,0,0,1,-3,-3v-20a3,3,0,0,1,3,-3z" stroke-width="1"></path><g id="node_text2" fill="black"><text id="kity_text_33" text-rendering="inherit" font-size="14" dy=".8em" y="128.39999675750732" x="167.50000201165676">均线的概念</text></g></g><g id="minder_node3"><g id="node_expander2" style="cursor: pointer;"><path id="kity_path_44" fill="white" stroke="gray" d="M146.50000201165676,290.49999918043613A6,6,0,1,1,134.50000201165676,290.49999918043613A6,6,0,1,1,146.50000201165676,290.49999918043613"></path><path id="kity_path_45" fill="none" stroke="gray" d="M136.00000201165676,290.49999918043613L145.00000201165676,290.49999918043613"></path></g><path id="node_outline3" fill="rgb(238, 243, 246)" stroke="rgb(115, 161, 191)" d="M150.50000201165676,277.49999918043613h106a3,3,0,0,1,3,3v20a3,3,0,0,1,-3,3h-106a3,3,0,0,1,-3,-3v-20a3,3,0,0,1,3,-3z" stroke-width="1"></path><g id="node_text3" fill="black"><text id="kity_text_41" text-rendering="inherit" font-size="14" dy=".8em" y="281.399999037385" x="167.50000201165676">均线的变化</text></g></g><g id="minder_node4"><g id="node_expander3" style="cursor: pointer;"><path id="kity_path_52" fill="white" stroke="gray" d="M146.50000201165676,415.5000010430813A6,6,0,1,1,134.50000201165676,415.5000010430813A6,6,0,1,1,146.50000201165676,415.5000010430813"></path><path id="kity_path_53" fill="none" stroke="gray" d="M136.00000201165676,415.5000010430813L145.00000201165676,415.5000010430813"></path></g><path id="node_outline4" fill="rgb(238, 243, 246)" stroke="rgb(115, 161, 191)" d="M150.50000201165676,402.5000010430813h106a3,3,0,0,1,3,3v20a3,3,0,0,1,-3,3h-106a3,3,0,0,1,-3,-3v-20a3,3,0,0,1,3,-3z" stroke-width="1"></path><g id="node_text4" fill="black"><text id="kity_text_49" text-rendering="inherit" font-size="14" dy=".8em" y="406.40000090003014" x="167.50000201165676">均线的聚散</text></g></g><g id="minder_node5"><g id="node_expander4" style="cursor: pointer;"><path id="kity_path_60" fill="white" stroke="gray" d="M146.50000201165676,553.5000030994415A6,6,0,1,1,134.50000201165676,553.5000030994415A6,6,0,1,1,146.50000201165676,553.5000030994415"></path><path id="kity_path_61" fill="none" stroke="gray" d="M136.00000201165676,553.5000030994415L145.00000201165676,553.5000030994415"></path></g><path id="node_outline5" fill="rgb(238, 243, 246)" stroke="rgb(115, 161, 191)" d="M150.50000201165676,540.5000030994415h105a3,3,0,0,1,3,3v20a3,3,0,0,1,-3,3h-105a3,3,0,0,1,-3,-3v-20a3,3,0,0,1,3,-3z" stroke-width="1"></path><g id="node_text5" fill="black"><text id="kity_text_57" text-rendering="inherit" font-size="14" dy=".8em" y="544.4000029563904" x="167.50000201165676">均线的用法</text></g></g><g id="minder_node6"><g id="node_expander5" style="cursor: pointer;"><path id="kity_path_68" fill="white" stroke="gray" d="M275.500003695488,84.49999611079693A6,6,0,1,1,263.500003695488,84.49999611079693A6,6,0,1,1,275.500003695488,84.49999611079693"></path><path id="kity_path_69" fill="none" stroke="gray" d="M265.000003695488,84.49999611079693L274.000003695488,84.49999611079693"></path></g><path id="node_outline6" fill="none" stroke="none" d="M280.500003695488,75.49999611079693h25a5,5,0,0,1,5,5v8a5,5,0,0,1,-5,5h-25a5,5,0,0,1,-5,-5v-8a5,5,0,0,1,5,-5z" stroke-width="3"></path><g id="node_text6" fill="black"><text id="kity_text_65" text-rendering="inherit" font-size="12" dy=".8em" y="76.69999603927135" x="280.500003695488">特点</text></g></g><g id="minder_node7"><g id="node_expander6" style="cursor: pointer;" display="none"><path id="kity_path_76" fill="white" stroke="gray" d="M275.500003695488,165.499997317791A6,6,0,1,1,263.500003695488,165.499997317791A6,6,0,1,1,275.500003695488,165.499997317791"></path><path id="kity_path_77" fill="none" stroke="gray"></path></g><path id="node_outline7" fill="none" stroke="none" d="M280.500003695488,156.499997317791h62a5,5,0,0,1,5,5v8a5,5,0,0,1,-5,5h-62a5,5,0,0,1,-5,-5v-8a5,5,0,0,1,5,-5z" stroke-width="3"></path><g id="node_text7" fill="black"><text id="kity_text_73" text-rendering="inherit" font-size="12" dy=".8em" y="157.69999724626544" x="280.500003695488">均线的公式</text></g></g><g id="minder_node8"><g id="node_expander7" style="cursor: pointer;" display="none"><path id="kity_path_84" fill="white" stroke="gray" d="M275.500003695488,191.49999770522118A6,6,0,1,1,263.500003695488,191.49999770522118A6,6,0,1,1,275.500003695488,191.49999770522118"></path><path id="kity_path_85" fill="none" stroke="gray"></path></g><path id="node_outline8" fill="none" stroke="none" d="M280.500003695488,182.49999770522118h61a5,5,0,0,1,5,5v8a5,5,0,0,1,-5,5h-61a5,5,0,0,1,-5,-5v-8a5,5,0,0,1,5,-5z" stroke-width="3"></path><g id="node_text8" fill="black"><text id="kity_text_81" text-rendering="inherit" font-size="12" dy=".8em" y="183.6999976336956" x="280.500003695488">均线的周期</text></g></g><g id="minder_node9"><g id="node_expander8" style="cursor: pointer;" display="none"><path id="kity_path_92" fill="white" stroke="gray" d="M326.5000048279762,33.49999535083771A6,6,0,1,1,314.5000048279762,33.49999535083771A6,6,0,1,1,326.5000048279762,33.49999535083771"></path><path id="kity_path_93" fill="none" stroke="gray"></path></g><path id="node_outline9" fill="none" stroke="none" d="M331.5000048279762,20.499995350837708h63a5,5,0,0,1,5,5v16a5,5,0,0,1,-5,5h-63a5,5,0,0,1,-5,-5v-16a5,5,0,0,1,5,-5z" stroke-width="3"></path><g id="node_text9" fill="black"><text id="kity_text_89" text-rendering="inherit" font-size="12" dy=".8em" y="25.699995279312134" x="356.5000048279762">稳定性</text></g><g id="node_priority1"><path id="kity_path_96" fill="#840023" stroke="none" d="M332.0000048279762,36.99999535083771c0,3.866,3.134,7,7,7h6c3.866,0,7,-3.134,7,-7V30.999995350837708H332.0000048279762V36.99999535083771z"></path><path id="kity_path_97" fill="#FF1200" stroke="none" d="M352.0000048279762,33.99999535083771c0,3.866,-3.134,7,-7,7H339.0000048279762c-3.866,0,-7,-3.134,-7,-7V30.999995350837708c0,-3.866,3.134,-7,7,-7h6c3.866,0,7,3.134,7,7V33.99999535083771z" opacity="0.8"></path><text id="kity_text_98" text-rendering="geometricPrecision" x="341.0000048279762" y="33.49999535083771" text-anchor="middle" font-style="italic" font-size="12" fill="white" dy="5">1</text></g></g><g id="minder_node10"><g id="node_expander9" style="cursor: pointer;" display="none"><path id="kity_path_105" fill="white" stroke="gray" d="M326.5000048279762,67.49999585747719A6,6,0,1,1,314.5000048279762,67.49999585747719A6,6,0,1,1,326.5000048279762,67.49999585747719"></path><path id="kity_path_106" fill="none" stroke="gray"></path></g><path id="node_outline10" fill="none" stroke="none" d="M331.5000048279762,54.49999585747719h63a5,5,0,0,1,5,5v16a5,5,0,0,1,-5,5h-63a5,5,0,0,1,-5,-5v-16a5,5,0,0,1,5,-5z" stroke-width="3"></path><g id="node_text10" fill="black"><text id="kity_text_102" text-rendering="inherit" font-size="12" dy=".8em" y="59.699995785951614" x="356.5000048279762">方向性</text></g><g id="node_priority2"><path id="kity_path_109" fill="#01467F" stroke="none" d="M332.0000048279762,70.99999585747719c0,3.866,3.134,7,7,7h6c3.866,0,7,-3.134,7,-7V64.99999585747719H332.0000048279762V70.99999585747719z"></path><path id="kity_path_110" fill="#0074FF" stroke="none" d="M352.0000048279762,67.99999585747719c0,3.866,-3.134,7,-7,7H339.0000048279762c-3.866,0,-7,-3.134,-7,-7V64.99999585747719c0,-3.866,3.134,-7,7,-7h6c3.866,0,7,3.134,7,7V67.99999585747719z" opacity="0.8"></path><text id="kity_text_111" text-rendering="geometricPrecision" x="341.0000048279762" y="67.49999585747719" text-anchor="middle" font-style="italic" font-size="12" fill="white" dy="5">2</text></g></g><g id="minder_node11"><g id="node_expander10" style="cursor: pointer;" display="none"><path id="kity_path_118" fill="white" stroke="gray" d="M326.5000048279762,101.49999636411667A6,6,0,1,1,314.5000048279762,101.49999636411667A6,6,0,1,1,326.5000048279762,101.49999636411667"></path><path id="kity_path_119" fill="none" stroke="gray"></path></g><path id="node_outline11" fill="none" stroke="none" d="M331.5000048279762,88.49999636411667h62a5,5,0,0,1,5,5v16a5,5,0,0,1,-5,5h-62a5,5,0,0,1,-5,-5v-16a5,5,0,0,1,5,-5z" stroke-width="3"></path><g id="node_text11" fill="black"><text id="kity_text_115" text-rendering="inherit" font-size="12" dy=".8em" y="93.6999962925911" x="356.5000048279762">动态性</text></g><g id="node_priority3"><path id="kity_path_122" fill="#006300" stroke="none" d="M332.0000048279762,104.99999636411667c0,3.866,3.134,7,7,7h6c3.866,0,7,-3.134,7,-7V98.99999636411667H332.0000048279762V104.99999636411667z"></path><path id="kity_path_123" fill="#00AF00" stroke="none" d="M352.0000048279762,101.99999636411667c0,3.866,-3.134,7,-7,7H339.0000048279762c-3.866,0,-7,-3.134,-7,-7V98.99999636411667c0,-3.866,3.134,-7,7,-7h6c3.866,0,7,3.134,7,7V101.99999636411667z" opacity="0.8"></path><text id="kity_text_124" text-rendering="geometricPrecision" x="341.0000048279762" y="101.49999636411667" text-anchor="middle" font-style="italic" font-size="12" fill="white" dy="5">3</text></g></g><g id="minder_node12"><g id="node_expander11" style="cursor: pointer;" display="none"><path id="kity_path_131" fill="white" stroke="gray" d="M326.5000048279762,135.49999687075615A6,6,0,1,1,314.5000048279762,135.49999687075615A6,6,0,1,1,326.5000048279762,135.49999687075615"></path><path id="kity_path_132" fill="none" stroke="gray"></path></g><path id="node_outline12" fill="none" stroke="none" d="M331.5000048279762,122.49999687075615h87a5,5,0,0,1,5,5v16a5,5,0,0,1,-5,5h-87a5,5,0,0,1,-5,-5v-16a5,5,0,0,1,5,-5z" stroke-width="3"></path><g id="node_text12" fill="black"><text id="kity_text_128" text-rendering="inherit" font-size="12" dy=".8em" y="127.69999679923058" x="356.5000048279762">促进制约性</text></g><g id="node_priority4"><path id="kity_path_135" fill="#B25000" stroke="none" d="M332.0000048279762,138.99999687075615c0,3.866,3.134,7,7,7h6c3.866,0,7,-3.134,7,-7V132.99999687075615H332.0000048279762V138.99999687075615z"></path><path id="kity_path_136" fill="#FF962E" stroke="none" d="M352.0000048279762,135.99999687075615c0,3.866,-3.134,7,-7,7H339.0000048279762c-3.866,0,-7,-3.134,-7,-7V132.99999687075615c0,-3.866,3.134,-7,7,-7h6c3.866,0,7,3.134,7,7V135.99999687075615z" opacity="0.8"></path><text id="kity_text_137" text-rendering="geometricPrecision" x="341.0000048279762" y="135.49999687075615" text-anchor="middle" font-style="italic" font-size="12" fill="white" dy="5">4</text></g></g><g id="minder_node13"><g id="node_expander12" style="cursor: pointer;"><path id="kity_path_144" fill="white" stroke="gray" d="M275.500003695488,238.49999840557575A6,6,0,1,1,263.500003695488,238.49999840557575A6,6,0,1,1,275.500003695488,238.49999840557575"></path><path id="kity_path_145" fill="none" stroke="gray" d="M265.000003695488,238.49999840557575L274.000003695488,238.49999840557575"></path></g><path id="node_outline13" fill="none" stroke="none" d="M280.500003695488,229.49999840557575h61a5,5,0,0,1,5,5v8a5,5,0,0,1,-5,5h-61a5,5,0,0,1,-5,-5v-8a5,5,0,0,1,5,-5z" stroke-width="3"></path><g id="node_text13" fill="black"><text id="kity_text_141" text-rendering="inherit" font-size="12" dy=".8em" y="230.69999833405018" x="280.500003695488">单均线扭转</text></g></g><g id="minder_node14"><g id="node_expander13" style="cursor: pointer;"><path id="kity_path_152" fill="white" stroke="gray" d="M275.500003695488,290.49999918043613A6,6,0,1,1,263.500003695488,290.49999918043613A6,6,0,1,1,275.500003695488,290.49999918043613"></path><path id="kity_path_153" fill="none" stroke="gray" d="M265.000003695488,290.49999918043613L274.000003695488,290.49999918043613"></path></g><path id="node_outline14" fill="none" stroke="none" d="M280.500003695488,281.49999918043613h62a5,5,0,0,1,5,5v8a5,5,0,0,1,-5,5h-62a5,5,0,0,1,-5,-5v-8a5,5,0,0,1,5,-5z" stroke-width="3"></path><g id="node_text14" fill="black"><text id="kity_text_149" text-rendering="inherit" font-size="12" dy=".8em" y="282.69999910891056" x="280.500003695488">双均线交叉</text></g></g><g id="minder_node15"><g id="node_expander14" style="cursor: pointer;"><path id="kity_path_160" fill="white" stroke="gray" d="M275.500003695488,342.4999999552965A6,6,0,1,1,263.500003695488,342.4999999552965A6,6,0,1,1,275.500003695488,342.4999999552965"></path><path id="kity_path_161" fill="none" stroke="gray" d="M265.000003695488,342.4999999552965L274.000003695488,342.4999999552965"></path></g><path id="node_outline15" fill="none" stroke="none" d="M280.500003695488,333.4999999552965h61a5,5,0,0,1,5,5v8a5,5,0,0,1,-5,5h-61a5,5,0,0,1,-5,-5v-8a5,5,0,0,1,5,-5z" stroke-width="3"></path><g id="node_text15" fill="black"><text id="kity_text_157" text-rendering="inherit" font-size="12" dy=".8em" y="334.69999988377094" x="280.500003695488">多均线组合</text></g></g><g id="minder_node16"><g id="node_expander15" style="cursor: pointer;" display="none"><path id="kity_path_168" fill="white" stroke="gray" d="M362.500004991889,225.49999821186066A6,6,0,1,1,350.500004991889,225.49999821186066A6,6,0,1,1,362.500004991889,225.49999821186066"></path><path id="kity_path_169" fill="none" stroke="gray"></path></g><path id="node_outline16" fill="none" stroke="none" d="M367.500004991889,216.49999821186066h45a5,5,0,0,1,5,5v8a5,5,0,0,1,-5,5h-45a5,5,0,0,1,-5,-5v-8a5,5,0,0,1,5,-5z" stroke-width="3"></path><g id="node_text16" fill="black"><text id="kity_text_165" text-rendering="inherit" font-size="12" dy=".8em" y="217.69999814033508" x="367.500004991889">龙尾K线</text></g></g><g id="minder_node17"><g id="node_expander16" style="cursor: pointer;" display="none"><path id="kity_path_176" fill="white" stroke="gray" d="M362.500004991889,251.49999859929085A6,6,0,1,1,350.500004991889,251.49999859929085A6,6,0,1,1,362.500004991889,251.49999859929085"></path><path id="kity_path_177" fill="none" stroke="gray"></path></g><path id="node_outline17" fill="none" stroke="none" d="M367.500004991889,242.49999859929085h50a5,5,0,0,1,5,5v8a5,5,0,0,1,-5,5h-50a5,5,0,0,1,-5,-5v-8a5,5,0,0,1,5,-5z" stroke-width="3"></path><g id="node_text17" fill="black"><text id="kity_text_173" text-rendering="inherit" font-size="12" dy=".8em" y="243.69999852776527" x="367.500004991889">甩尾技术</text></g></g><g id="minder_node18"><g id="node_expander17" style="cursor: pointer;" display="none"><path id="kity_path_184" fill="white" stroke="gray" d="M363.50000500679016,277.49999898672104A6,6,0,1,1,351.50000500679016,277.49999898672104A6,6,0,1,1,363.50000500679016,277.49999898672104"></path><path id="kity_path_185" fill="none" stroke="gray"></path></g><path id="node_outline18" fill="none" stroke="none" d="M368.50000500679016,268.49999898672104h50a5,5,0,0,1,5,5v8a5,5,0,0,1,-5,5h-50a5,5,0,0,1,-5,-5v-8a5,5,0,0,1,5,-5z" stroke-width="3"></path><g id="node_text18" fill="black"><text id="kity_text_181" text-rendering="inherit" font-size="12" dy=".8em" y="269.69999891519547" x="368.50000500679016">价格穿越</text></g></g><g id="minder_node19"><g id="node_expander18" style="cursor: pointer;" display="none"><path id="kity_path_192" fill="white" stroke="gray" d="M363.50000500679016,303.49999937415123A6,6,0,1,1,351.50000500679016,303.49999937415123A6,6,0,1,1,363.50000500679016,303.49999937415123"></path><path id="kity_path_193" fill="none" stroke="gray"></path></g><path id="node_outline19" fill="none" stroke="none" d="M368.50000500679016,294.49999937415123h50a5,5,0,0,1,5,5v8a5,5,0,0,1,-5,5h-50a5,5,0,0,1,-5,-5v-8a5,5,0,0,1,5,-5z" stroke-width="3"></path><g id="node_text19" fill="black"><text id="kity_text_189" text-rendering="inherit" font-size="12" dy=".8em" y="295.69999930262566" x="368.50000500679016">金叉死叉</text></g></g><g id="minder_node20"><g id="node_expander19" style="cursor: pointer;" display="none"><path id="kity_path_200" fill="white" stroke="gray" d="M362.500004991889,329.4999997615814A6,6,0,1,1,350.500004991889,329.4999997615814A6,6,0,1,1,362.500004991889,329.4999997615814"></path><path id="kity_path_201" fill="none" stroke="gray"></path></g><path id="node_outline20" fill="none" stroke="none" d="M367.500004991889,320.4999997615814h50a5,5,0,0,1,5,5v8a5,5,0,0,1,-5,5h-50a5,5,0,0,1,-5,-5v-8a5,5,0,0,1,5,-5z" stroke-width="3"></path><g id="node_text20" fill="black"><text id="kity_text_197" text-rendering="inherit" font-size="12" dy=".8em" y="321.69999969005585" x="367.500004991889">均线收敛</text></g></g><g id="minder_node21"><g id="node_expander20" style="cursor: pointer;" display="none"><path id="kity_path_208" fill="white" stroke="gray" d="M362.500004991889,355.5000001490116A6,6,0,1,1,350.500004991889,355.5000001490116A6,6,0,1,1,362.500004991889,355.5000001490116"></path><path id="kity_path_209" fill="none" stroke="gray"></path></g><path id="node_outline21" fill="none" stroke="none" d="M367.500004991889,346.5000001490116h50a5,5,0,0,1,5,5v8a5,5,0,0,1,-5,5h-50a5,5,0,0,1,-5,-5v-8a5,5,0,0,1,5,-5z" stroke-width="3"></path><g id="node_text21" fill="black"><text id="kity_text_205" text-rendering="inherit" font-size="12" dy=".8em" y="347.70000007748604" x="367.500004991889">均线发散</text></g></g><g id="minder_node22"><g id="node_expander21" style="cursor: pointer;" display="none"><path id="kity_path_216" fill="white" stroke="gray" d="M275.500003695488,389.5000006556511A6,6,0,1,1,263.500003695488,389.5000006556511A6,6,0,1,1,275.500003695488,389.5000006556511"></path><path id="kity_path_217" fill="none" stroke="gray"></path></g><path id="node_outline22" fill="none" stroke="none" d="M280.500003695488,380.5000006556511h62a5,5,0,0,1,5,5v8a5,5,0,0,1,-5,5h-62a5,5,0,0,1,-5,-5v-8a5,5,0,0,1,5,-5z" stroke-width="3"></path><g id="node_text22" fill="black"><text id="kity_text_213" text-rendering="inherit" font-size="12" dy=".8em" y="381.7000005841255" x="280.500003695488">均线与价值</text></g></g><g id="minder_node23"><g id="node_expander22" style="cursor: pointer;" display="none"><path id="kity_path_224" fill="white" stroke="gray" d="M275.500003695488,415.5000010430813A6,6,0,1,1,263.500003695488,415.5000010430813A6,6,0,1,1,275.500003695488,415.5000010430813"></path><path id="kity_path_225" fill="none" stroke="gray"></path></g><path id="node_outline23" fill="none" stroke="none" d="M280.500003695488,406.5000010430813h61a5,5,0,0,1,5,5v8a5,5,0,0,1,-5,5h-61a5,5,0,0,1,-5,-5v-8a5,5,0,0,1,5,-5z" stroke-width="3"></path><g id="node_text23" fill="black"><text id="kity_text_221" text-rendering="inherit" font-size="12" dy=".8em" y="407.7000009715557" x="280.500003695488">爆米花过程</text></g></g><g id="minder_node24"><g id="node_expander23" style="cursor: pointer;" display="none"><path id="kity_path_232" fill="white" stroke="gray" d="M275.500003695488,441.5000014305115A6,6,0,1,1,263.500003695488,441.5000014305115A6,6,0,1,1,275.500003695488,441.5000014305115"></path><path id="kity_path_233" fill="none" stroke="gray"></path></g><path id="node_outline24" fill="none" stroke="none" d="M280.500003695488,432.5000014305115h62a5,5,0,0,1,5,5v8a5,5,0,0,1,-5,5h-62a5,5,0,0,1,-5,-5v-8a5,5,0,0,1,5,-5z" stroke-width="3"></path><g id="node_text24" fill="black"><text id="kity_text_229" text-rendering="inherit" font-size="12" dy=".8em" y="433.7000013589859" x="280.500003695488">均线的聚散</text></g></g><g id="minder_node25"><g id="node_expander24" style="cursor: pointer;" display="none"><path id="kity_path_240" fill="white" stroke="gray" d="M274.5000036805868,475.50000193715096A6,6,0,1,1,262.5000036805868,475.50000193715096A6,6,0,1,1,274.5000036805868,475.50000193715096"></path><path id="kity_path_241" fill="none" stroke="gray" d="M264.0000036805868,475.50000193715096L273.0000036805868,475.50000193715096"></path></g><path id="node_outline25" fill="none" stroke="none" d="M279.5000036805868,466.50000193715096h97a5,5,0,0,1,5,5v8a5,5,0,0,1,-5,5h-97a5,5,0,0,1,-5,-5v-8a5,5,0,0,1,5,-5z" stroke-width="3"></path><g id="node_text25" fill="black"><text id="kity_text_237" text-rendering="inherit" font-size="12" dy=".8em" y="467.7000018656254" x="279.5000036805868">葛兰威尔八大法则</text></g></g><g id="minder_node27"><g id="node_expander26" style="cursor: pointer;" display="none"><path id="kity_path_256" fill="white" stroke="gray" d="M274.5000036805868,501.50000232458115A6,6,0,1,1,262.5000036805868,501.50000232458115A6,6,0,1,1,274.5000036805868,501.50000232458115"></path><path id="kity_path_257" fill="none" stroke="gray"></path></g><path id="node_outline27" fill="none" stroke="none" d="M279.5000036805868,492.50000232458115h48a5,5,0,0,1,5,5v8a5,5,0,0,1,-5,5h-48a5,5,0,0,1,-5,-5v-8a5,5,0,0,1,5,-5z" stroke-width="3"></path><g id="node_text27" fill="black"><text id="kity_text_253" text-rendering="inherit" font-size="12" dy=".8em" y="493.7000022530556" x="279.5000036805868">买入法则</text></g></g><g id="minder_node28"><g id="node_expander27" style="cursor: pointer;" display="none"><path id="kity_path_264" fill="white" stroke="gray" d="M274.5000036805868,527.5000027120113A6,6,0,1,1,262.5000036805868,527.5000027120113A6,6,0,1,1,274.5000036805868,527.5000027120113"></path><path id="kity_path_265" fill="none" stroke="gray"></path></g><path id="node_outline28" fill="none" stroke="none" d="M279.5000036805868,518.5000027120113h49a5,5,0,0,1,5,5v8a5,5,0,0,1,-5,5h-49a5,5,0,0,1,-5,-5v-8a5,5,0,0,1,5,-5z" stroke-width="3"></path><g id="node_text28" fill="black"><text id="kity_text_261" text-rendering="inherit" font-size="12" dy=".8em" y="519.7000026404858" x="279.5000036805868">卖出法则</text></g></g><g id="minder_node29"><g id="node_expander28" style="cursor: pointer;" display="none"><path id="kity_path_272" fill="white" stroke="gray" d="M274.5000036805868,553.5000030994415A6,6,0,1,1,262.5000036805868,553.5000030994415A6,6,0,1,1,274.5000036805868,553.5000030994415"></path><path id="kity_path_273" fill="none" stroke="gray"></path></g><path id="node_outline29" fill="none" stroke="none" d="M279.5000036805868,544.5000030994415h110a5,5,0,0,1,5,5v8a5,5,0,0,1,-5,5h-110a5,5,0,0,1,-5,-5v-8a5,5,0,0,1,5,-5z" stroke-width="3"></path><g id="node_text29" fill="black"><text id="kity_text_269" text-rendering="inherit" font-size="12" dy=".8em" y="545.700003027916" x="279.5000036805868">葛兰威尔与波浪理论</text></g></g><g id="minder_node30"><g id="node_expander29" style="cursor: pointer;" display="none"><path id="kity_path_280" fill="white" stroke="gray" d="M274.5000036805868,579.5000034868717A6,6,0,1,1,262.5000036805868,579.5000034868717A6,6,0,1,1,274.5000036805868,579.5000034868717"></path><path id="kity_path_281" fill="none" stroke="gray"></path></g><path id="node_outline30" fill="none" stroke="none" d="M279.5000036805868,570.5000034868717h85a5,5,0,0,1,5,5v8a5,5,0,0,1,-5,5h-85a5,5,0,0,1,-5,-5v-8a5,5,0,0,1,5,-5z" stroke-width="3"></path><g id="node_text30" fill="black"><text id="kity_text_277" text-rendering="inherit" font-size="12" dy=".8em" y="571.7000034153461" x="279.5000036805868">均线的六大法则</text></g></g><g id="minder_node31"><g id="node_expander30" style="cursor: pointer;" display="none"><path id="kity_path_288" fill="white" stroke="gray" d="M274.5000036805868,605.5000038743019A6,6,0,1,1,262.5000036805868,605.5000038743019A6,6,0,1,1,274.5000036805868,605.5000038743019"></path><path id="kity_path_289" fill="none" stroke="gray"></path></g><path id="node_outline31" fill="none" stroke="none" d="M279.5000036805868,596.5000038743019h74a5,5,0,0,1,5,5v8a5,5,0,0,1,-5,5h-74a5,5,0,0,1,-5,-5v-8a5,5,0,0,1,5,-5z" stroke-width="3"></path><g id="node_text31" fill="black"><text id="kity_text_285" text-rendering="inherit" font-size="12" dy=".8em" y="597.7000038027763" x="279.5000036805868">波浪起点确认</text></g></g><g id="minder_node32"><g id="node_expander31" style="cursor: pointer;" display="none"><path id="kity_path_296" fill="white" stroke="gray" d="M274.5000036805868,631.5000042617321A6,6,0,1,1,262.5000036805868,631.5000042617321A6,6,0,1,1,274.5000036805868,631.5000042617321"></path><path id="kity_path_297" fill="none" stroke="gray"></path></g><path id="node_outline32" fill="none" stroke="none" d="M279.5000036805868,622.5000042617321h74a5,5,0,0,1,5,5v8a5,5,0,0,1,-5,5h-74a5,5,0,0,1,-5,-5v-8a5,5,0,0,1,5,-5z" stroke-width="3"></path><g id="node_text32" fill="black"><text id="kity_text_293" text-rendering="inherit" font-size="12" dy=".8em" y="623.7000041902065" x="279.5000036805868">60均线定牛熊</text></g></g></g></g></svg>