<svg id="kity_svg_6" xmlns="http://www.w3.org/2000/svg" xmlns:xlink="http://www.w3.org/1999/xlink" version="1.1" width="545" height="616" style="background: rgb(251, 251, 251); visibility: visible;" viewBox="0 0 545 616"><defs id="kity_defs_7"><linearGradient id="kity_linearGradient_17" x1="0" y1="0" x2="0" y2="1"><stop id="kity_stop_18" offset="0" stop-color="rgb(255, 255, 255)"></stop><stop id="kity_stop_19" offset="1" stop-color="rgb(204, 204, 204)"></stop></linearGradient><marker id="kity_marker_4" orient="auto" refX="6" refY="0" viewBox="-7 -7 14 14" markerWidth="7" markerHeight="7" markerUnits="userSpaceOnUse"><path id="kity_path_5" fill="rgb(115, 161, 191)" stroke="none" d="M6,0A6,6,0,1,1,-6,0A6,6,0,1,1,6,0"></path></marker><marker id="kity_marker_2" orient="auto" refX="6" refY="0" viewBox="-7 -7 14 14" markerWidth="7" markerHeight="7" markerUnits="userSpaceOnUse"><path id="kity_path_3" fill="rgb(115, 161, 191)" stroke="none" d="M6,0A6,6,0,1,1,-6,0A6,6,0,1,1,6,0"></path></marker></defs><g id="kity_g_8"><g id="minder1" text-rendering="optimize-speed"><g id="minder_connect_group1"><path id="kity_path_31" fill="none" stroke="rgb(115, 161, 191)" stroke-width="1" d="M75,308.5A70.5,254,0,0,1,145.5,54.5"></path><path id="kity_path_46" fill="none" stroke="rgb(115, 161, 191)" stroke-width="1" d="M75,308.5A70.5,169,0,0,1,145.5,139.5"></path><path id="kity_path_54" fill="none" stroke="rgb(115, 161, 191)" stroke-width="1" d="M75,308.5A70.5,34,0,0,0,145.5,342.5"></path><path id="kity_path_62" fill="none" stroke="rgb(115, 161, 191)" stroke-width="1" d="M75,308.5A70.5,205,0,0,0,145.5,513.5"></path><path id="kity_path_70" fill="none" stroke="rgb(115, 161, 191)" stroke-width="1" d="M75,308.5A70.5,275,0,0,0,145.5,583.5"></path><path id="kity_path_124" fill="none" stroke="rgb(115, 161, 191)" stroke-width="1" d="M241.5,342.5C249.5,342.5,249.5,251.5,257.5,251.5"></path><path id="kity_path_132" fill="none" stroke="rgb(115, 161, 191)" stroke-width="1" d="M241.5,342.5C249.5,342.5,249.5,342.5,257.5,342.5"></path><path id="kity_path_140" fill="none" stroke="rgb(115, 161, 191)" stroke-width="1" d="M241.5,342.5C249.5,342.5,249.5,407.5,257.5,407.5"></path><path id="kity_path_148" fill="none" stroke="rgb(115, 161, 191)" stroke-width="1" d="M241.5,342.5C249.5,342.5,249.5,433.5,257.5,433.5"></path><path id="kity_path_156" fill="none" stroke="rgb(115, 161, 191)" stroke-width="1" d="M245.5,513.5C253.5,513.5,253.5,481.5,261.5,481.5"></path><path id="kity_path_164" fill="none" stroke="rgb(115, 161, 191)" stroke-width="1" d="M245.5,513.5C253.5,513.5,253.5,520.5,261.5,520.5"></path><path id="kity_path_172" fill="none" stroke="rgb(115, 161, 191)" stroke-width="1" d="M245.5,513.5C253.5,513.5,253.5,546.5,261.5,546.5"></path><path id="kity_path_180" fill="none" stroke="rgb(115, 161, 191)" stroke-width="1" d="M297.5,481.5C305.5,481.5,305.5,468.5,313.5,468.5"></path><path id="kity_path_188" fill="none" stroke="rgb(115, 161, 191)" stroke-width="1" d="M297.5,481.5C305.5,481.5,305.5,494.5,313.5,494.5"></path><path id="kity_path_196" fill="none" stroke="rgb(115, 161, 191)" stroke-width="1" d="M339.5,342.5C347.5,342.5,347.5,303.5,355.5,303.5"></path><path id="kity_path_204" fill="none" stroke="rgb(115, 161, 191)" stroke-width="1" d="M339.5,342.5C347.5,342.5,347.5,329.5,355.5,329.5"></path><path id="kity_path_212" fill="none" stroke="rgb(115, 161, 191)" stroke-width="1" d="M339.5,342.5C347.5,342.5,347.5,355.5,355.5,355.5"></path><path id="kity_path_220" fill="none" stroke="rgb(115, 161, 191)" stroke-width="1" d="M339.5,342.5C347.5,342.5,347.5,381.5,355.5,381.5"></path><path id="kity_path_228" fill="none" stroke="rgb(115, 161, 191)" stroke-width="1" d="M374.5,251.5C382.5,251.5,382.5,225.5,390.5,225.5"></path><path id="kity_path_236" fill="none" stroke="rgb(115, 161, 191)" stroke-width="1" d="M374.5,251.5C382.5,251.5,382.5,251.5,390.5,251.5"></path><path id="kity_path_244" fill="none" stroke="rgb(115, 161, 191)" stroke-width="1" d="M374.5,251.5C382.5,251.5,382.5,277.5,390.5,277.5"></path><path id="kity_path_256" fill="none" stroke="rgb(115, 161, 191)" stroke-width="1" d="M216.5,139.5C224.5,139.5,224.5,113.5,232.5,113.5"></path><path id="kity_path_257" fill="none" stroke="rgb(115, 161, 191)" stroke-width="1" d="M303.5,165.5C311.5,165.5,311.5,139.5,319.5,139.5"></path><path id="kity_path_258" fill="none" stroke="rgb(115, 161, 191)" stroke-width="1" d="M303.5,165.5C311.5,165.5,311.5,165.5,319.5,165.5"></path><path id="kity_path_259" fill="none" stroke="rgb(115, 161, 191)" stroke-width="1" d="M303.5,165.5C311.5,165.5,311.5,191.5,319.5,191.5"></path><path id="kity_path_260" fill="none" stroke="rgb(115, 161, 191)" stroke-width="1" d="M216.5,139.5C224.5,139.5,224.5,165.5,232.5,165.5"></path></g><g id="minder_node1"><path id="kity_path_82" fill="rgba(0, 0, 0, .25)" stroke="none" d="M31.5,296.5h136a5,5,0,0,1,5,5v24a5,5,0,0,1,-5,5h-136a5,5,0,0,1,-5,-5v-24a5,5,0,0,1,5,-5z" display="none"></path><path id="node_outline1" fill="rgb(115, 161, 191)" stroke="rgb(115, 161, 191)" d="M25.5,294.5h99a5,5,0,0,1,5,5v18a5,5,0,0,1,-5,5h-99a5,5,0,0,1,-5,-5v-18a5,5,0,0,1,5,-5z" stroke-width="3"></path><g id="node_text1" fill="white"><text id="kity_text_22" text-rendering="inherit" font-size="16" dy=".8em" y="298.09999990463257" x="32.5">交易决策·形</text></g></g><g id="kity_g_12" display="none"><path id="kity_path_13" fill="none" stroke="none" d="M32.5,308.5h0v0h0z"></path></g><g id="kity_g_14" display="none"><path id="kity_path_15" fill="none" stroke="none" d="M32.5,308.5h0v0h0z"></path><path id="kity_path_16" fill="none" stroke="none"></path></g><g id="minder_node2"><path id="kity_path_77" fill="rgba(0, 0, 0, .25)" stroke="none" d="M166.50000201165676,23.499996215105057h395a5,5,0,0,1,5,5v62a5,5,0,0,1,-5,5h-395a5,5,0,0,1,-5,-5v-62a5,5,0,0,1,5,-5z" display="none"></path><g id="node_expander1" style="cursor: pointer;" display="none"><path id="kity_path_36" fill="white" stroke="gray" d="M146.50000201165676,54.49999621510506A6,6,0,1,1,134.50000201165676,54.49999621510506A6,6,0,1,1,146.50000201165676,54.49999621510506"></path><path id="kity_path_37" fill="none" stroke="gray"></path></g><path id="node_outline2" fill="rgb(238, 243, 246)" stroke="rgb(115, 161, 191)" d="M150.50000201165676,20.499996215105057h371a3,3,0,0,1,3,3v62a3,3,0,0,1,-3,3h-371a3,3,0,0,1,-3,-3v-62a3,3,0,0,1,3,-3z" stroke-width="1"></path><g id="node_text2" fill="black"><text id="kity_text_33" text-rendering="inherit" font-size="14" dy=".8em" y="24.39999607205391" x="167.50000201165676">通过对市场横向运动时形成的各种价格形态进行分析，</text><text id="kity_text_43" text-rendering="inherit" font-size="14" dy=".8em" y="45.39999607205391" x="167.50000201165676">并且配合成交量的变化，</text><text id="kity_text_44" text-rendering="inherit" font-size="14" dy=".8em" y="66.39999607205391" x="167.50000201165676">推断出市场现存的趋势将会延续或反转。</text></g><g id="node_priority1" display="none"><path id="kity_path_40" fill="#840023" stroke="none" d="M143.00000201165676,57.99999621510506c0,3.866,3.134,7,7,7h6c3.866,0,7,-3.134,7,-7V51.99999621510506H143.00000201165676V57.99999621510506z"></path><path id="kity_path_41" fill="#FF1200" stroke="none" d="M163.00000201165676,54.99999621510506c0,3.866,-3.134,7,-7,7H150.00000201165676c-3.866,0,-7,-3.134,-7,-7V51.99999621510506c0,-3.866,3.134,-7,7,-7h6c3.866,0,7,3.134,7,7V54.99999621510506z" opacity="0.8"></path><text id="kity_text_42" text-rendering="geometricPrecision" x="152.00000201165676" y="54.49999621510506" text-anchor="middle" font-style="italic" font-size="12" fill="white" dy="5">1</text></g></g><g id="minder_node3" opacity="1"><path id="kity_path_78" fill="rgba(0, 0, 0, .25)" stroke="none" d="M166.50000201165676,132.4999974817038h43a5,5,0,0,1,5,5v14a5,5,0,0,1,-5,5h-43a5,5,0,0,1,-5,-5v-14a5,5,0,0,1,5,-5z" display="none"></path><g id="node_expander2" style="cursor: pointer;"><path id="kity_path_51" fill="white" stroke="gray" d="M146.50000201165676,139.4999974817038A6,6,0,1,1,134.50000201165676,139.4999974817038A6,6,0,1,1,146.50000201165676,139.4999974817038"></path><path id="kity_path_52" fill="none" stroke="gray" d="M136.00000201165676,139.4999974817038L145.00000201165676,139.4999974817038"></path></g><path id="node_outline3" fill="rgb(238, 243, 246)" stroke="rgb(115, 161, 191)" d="M150.50000201165676,126.49999748170379h63a3,3,0,0,1,3,3v20a3,3,0,0,1,-3,3h-63a3,3,0,0,1,-3,-3v-20a3,3,0,0,1,3,-3z" stroke-width="1"></path><g id="node_text3" fill="black"><text id="kity_text_48" text-rendering="inherit" font-size="14" dy=".8em" y="130.39999733865264" x="167.50000201165676">走势</text></g></g><g id="minder_node4"><path id="kity_path_79" fill="rgba(0, 0, 0, .25)" stroke="none" d="M166.50000201165676,335.5000005066395h71a5,5,0,0,1,5,5v14a5,5,0,0,1,-5,5h-71a5,5,0,0,1,-5,-5v-14a5,5,0,0,1,5,-5z" display="none"></path><g id="node_expander3" style="cursor: pointer;"><path id="kity_path_59" fill="white" stroke="gray" d="M146.50000201165676,342.5000005066395A6,6,0,1,1,134.50000201165676,342.5000005066395A6,6,0,1,1,146.50000201165676,342.5000005066395"></path><path id="kity_path_60" fill="none" stroke="gray" d="M136.00000201165676,342.5000005066395L145.00000201165676,342.5000005066395"></path></g><path id="node_outline4" fill="rgb(238, 243, 246)" stroke="rgb(115, 161, 191)" d="M150.50000201165676,329.5000005066395h88a3,3,0,0,1,3,3v20a3,3,0,0,1,-3,3h-88a3,3,0,0,1,-3,-3v-20a3,3,0,0,1,3,-3z" stroke-width="1"></path><g id="node_text4" fill="black"><text id="kity_text_56" text-rendering="inherit" font-size="14" dy=".8em" y="333.40000036358833" x="167.50000201165676">N字结构</text></g></g><g id="minder_node5"><path id="kity_path_80" fill="rgba(0, 0, 0, .25)" stroke="none" d="M166.50000201165676,506.50000305473804h76a5,5,0,0,1,5,5v14a5,5,0,0,1,-5,5h-76a5,5,0,0,1,-5,-5v-14a5,5,0,0,1,5,-5z" display="none"></path><g id="node_expander4" style="cursor: pointer;"><path id="kity_path_67" fill="white" stroke="gray" d="M146.50000201165676,513.500003054738A6,6,0,1,1,134.50000201165676,513.500003054738A6,6,0,1,1,146.50000201165676,513.500003054738"></path><path id="kity_path_68" fill="none" stroke="gray" d="M136.00000201165676,513.500003054738L145.00000201165676,513.500003054738"></path></g><path id="node_outline5" fill="rgb(238, 243, 246)" stroke="rgb(115, 161, 191)" d="M150.50000201165676,500.50000305473804h92a3,3,0,0,1,3,3v20a3,3,0,0,1,-3,3h-92a3,3,0,0,1,-3,-3v-20a3,3,0,0,1,3,-3z" stroke-width="1"></path><g id="node_text5" fill="black"><text id="kity_text_64" text-rendering="inherit" font-size="14" dy=".8em" y="504.4000029116869" x="167.50000201165676">波浪理论</text></g></g><g id="minder_node6"><path id="kity_path_81" fill="rgba(0, 0, 0, .25)" stroke="none" d="M166.50000201165676,576.5000040978193h267a5,5,0,0,1,5,5v14a5,5,0,0,1,-5,5h-267a5,5,0,0,1,-5,-5v-14a5,5,0,0,1,5,-5z" display="none"></path><g id="node_expander5" style="cursor: pointer;" display="none"><path id="kity_path_75" fill="white" stroke="gray" d="M146.50000201165676,583.5000040978193A6,6,0,1,1,134.50000201165676,583.5000040978193A6,6,0,1,1,146.50000201165676,583.5000040978193"></path><path id="kity_path_76" fill="none" stroke="gray"></path></g><path id="node_outline6" fill="rgb(238, 243, 246)" stroke="rgb(115, 161, 191)" d="M150.50000201165676,570.5000040978193h260a3,3,0,0,1,3,3v20a3,3,0,0,1,-3,3h-260a3,3,0,0,1,-3,-3v-20a3,3,0,0,1,3,-3z" stroke-width="1"></path><g id="node_text6" fill="black"><text id="kity_text_72" text-rendering="inherit" font-size="14" dy=".8em" y="574.4000039547682" x="167.50000201165676">价格形态可分为反转形态和持续形态</text></g></g><g id="minder_node12"><path id="kity_path_269" fill="rgba(0, 0, 0, .25)" stroke="none" d="M324.0000034272671,192.9999991506338h0a64,64,0,0,1,64,64v0a64,64,0,0,1,-64,64h0a64,64,0,0,1,-64,-64v0a64,64,0,0,1,64,-64z" display="none"></path><g id="node_expander11" style="cursor: pointer;"><path id="kity_path_129" fill="white" stroke="gray" d="M257.5000034272671,251.4999991506338A6,6,0,1,1,245.50000342726707,251.4999991506338A6,6,0,1,1,257.5000034272671,251.4999991506338"></path><path id="kity_path_130" fill="none" stroke="gray" d="M247.00000342726707,251.4999991506338L256.0000034272671,251.4999991506338"></path></g><path id="node_outline12" fill="none" stroke="none" d="M262.5000034272671,242.4999991506338h107a5,5,0,0,1,5,5v8a5,5,0,0,1,-5,5h-107a5,5,0,0,1,-5,-5v-8a5,5,0,0,1,5,-5z" stroke-width="3"></path><g id="node_text12" fill="black"><text id="kity_text_126" text-rendering="inherit" font-size="12" dy=".8em" y="243.69999907910824" x="262.5000034272671">N字机构模式的体现</text></g></g><g id="minder_node13"><path id="kity_path_274" fill="rgba(0, 0, 0, .25)" stroke="none" d="M305.5000034272671,303.0000005066395h0a45,45,0,0,1,45,45v0a45,45,0,0,1,-45,45h0a45,45,0,0,1,-45,-45v0a45,45,0,0,1,45,-45z" display="none"></path><g id="node_expander12" style="cursor: pointer;"><path id="kity_path_137" fill="white" stroke="gray" d="M257.5000034272671,342.5000005066395A6,6,0,1,1,245.50000342726707,342.5000005066395A6,6,0,1,1,257.5000034272671,342.5000005066395"></path><path id="kity_path_138" fill="none" stroke="gray" d="M247.00000342726707,342.5000005066395L256.0000034272671,342.5000005066395"></path></g><path id="node_outline13" fill="none" stroke="none" d="M262.5000034272671,333.5000005066395h72a5,5,0,0,1,5,5v8a5,5,0,0,1,-5,5h-72a5,5,0,0,1,-5,-5v-8a5,5,0,0,1,5,-5z" stroke-width="3"></path><g id="node_text13" fill="black"><text id="kity_text_134" text-rendering="inherit" font-size="12" dy=".8em" y="334.7000004351139" x="262.5000034272671">两大基本买点</text></g></g><g id="minder_node14"><path id="kity_path_275" fill="rgba(0, 0, 0, .25)" stroke="none" d="M293.0000034272671,379.00000147521496h0a34,34,0,0,1,34,34v0a34,34,0,0,1,-34,34h0a34,34,0,0,1,-34,-34v0a34,34,0,0,1,34,-34z" display="none"></path><g id="node_expander13" style="cursor: pointer;" display="none"><path id="kity_path_145" fill="white" stroke="gray" d="M257.5000034272671,407.50000147521496A6,6,0,1,1,245.50000342726707,407.50000147521496A6,6,0,1,1,257.5000034272671,407.50000147521496"></path><path id="kity_path_146" fill="none" stroke="gray"></path></g><path id="node_outline14" fill="none" stroke="none" d="M262.5000034272671,398.50000147521496h49a5,5,0,0,1,5,5v8a5,5,0,0,1,-5,5h-49a5,5,0,0,1,-5,-5v-8a5,5,0,0,1,5,-5z" stroke-width="3"></path><g id="node_text14" fill="black"><text id="kity_text_142" text-rendering="inherit" font-size="12" dy=".8em" y="399.7000014036894" x="262.5000034272671">终极买点</text></g></g><g id="minder_node15"><path id="kity_path_276" fill="rgba(0, 0, 0, .25)" stroke="none" d="M325.5000034272671,374.00000186264515h0a65,65,0,0,1,65,65v0a65,65,0,0,1,-65,65h0a65,65,0,0,1,-65,-65v0a65,65,0,0,1,65,-65z" display="none"></path><g id="node_expander14" style="cursor: pointer;" display="none"><path id="kity_path_153" fill="white" stroke="gray" d="M257.5000034272671,433.50000186264515A6,6,0,1,1,245.50000342726707,433.50000186264515A6,6,0,1,1,257.5000034272671,433.50000186264515"></path><path id="kity_path_154" fill="none" stroke="gray"></path></g><path id="node_outline15" fill="none" stroke="none" d="M262.5000034272671,424.50000186264515h109a5,5,0,0,1,5,5v8a5,5,0,0,1,-5,5h-109a5,5,0,0,1,-5,-5v-8a5,5,0,0,1,5,-5z" stroke-width="3"></path><g id="node_text15" fill="black"><text id="kity_text_150" text-rendering="inherit" font-size="12" dy=".8em" y="425.7000017911196" x="262.5000034272671">“突破”是个伪命题</text></g></g><g id="minder_node16"><path id="kity_path_279" fill="rgba(0, 0, 0, .25)" stroke="none" d="M284.0000034868717,465.0000025779009h0a22,22,0,0,1,22,22v0a22,22,0,0,1,-22,22h0a22,22,0,0,1,-22,-22v0a22,22,0,0,1,22,-22z" display="none"></path><g id="node_expander15" style="cursor: pointer;"><path id="kity_path_161" fill="white" stroke="gray" d="M261.5000034868717,481.5000025779009A6,6,0,1,1,249.50000348687172,481.5000025779009A6,6,0,1,1,261.5000034868717,481.5000025779009"></path><path id="kity_path_162" fill="none" stroke="gray" d="M251.00000348687172,481.5000025779009L260.0000034868717,481.5000025779009"></path></g><path id="node_outline16" fill="none" stroke="none" d="M266.5000034868717,472.5000025779009h26a5,5,0,0,1,5,5v8a5,5,0,0,1,-5,5h-26a5,5,0,0,1,-5,-5v-8a5,5,0,0,1,5,-5z" stroke-width="3"></path><g id="node_text16" fill="black"><text id="kity_text_158" text-rendering="inherit" font-size="12" dy=".8em" y="473.7000025063753" x="266.5000034868717">原理</text></g></g><g id="minder_node17"><path id="kity_path_280" fill="rgba(0, 0, 0, .25)" stroke="none" d="M297.0000034868717,492.0000031590462h0a34,34,0,0,1,34,34v0a34,34,0,0,1,-34,34h0a34,34,0,0,1,-34,-34v0a34,34,0,0,1,34,-34z" display="none"></path><g id="node_expander16" style="cursor: pointer;" display="none"><path id="kity_path_169" fill="white" stroke="gray" d="M261.5000034868717,520.5000031590462A6,6,0,1,1,249.50000348687172,520.5000031590462A6,6,0,1,1,261.5000034868717,520.5000031590462"></path><path id="kity_path_170" fill="none" stroke="gray"></path></g><path id="node_outline17" fill="none" stroke="none" d="M266.5000034868717,511.5000031590462h49a5,5,0,0,1,5,5v8a5,5,0,0,1,-5,5h-49a5,5,0,0,1,-5,-5v-8a5,5,0,0,1,5,-5z" stroke-width="3"></path><g id="node_text17" fill="black"><text id="kity_text_166" text-rendering="inherit" font-size="12" dy=".8em" y="512.7000030875206" x="266.5000034868717">三大阶段</text></g></g><g id="minder_node18"><path id="kity_path_281" fill="rgba(0, 0, 0, .25)" stroke="none" d="M296.5000034868717,519.0000035464764h0a33,33,0,0,1,33,33v0a33,33,0,0,1,-33,33h0a33,33,0,0,1,-33,-33v0a33,33,0,0,1,33,-33z" display="none"></path><g id="node_expander17" style="cursor: pointer;" display="none"><path id="kity_path_177" fill="white" stroke="gray" d="M261.5000034868717,546.5000035464764A6,6,0,1,1,249.50000348687172,546.5000035464764A6,6,0,1,1,261.5000034868717,546.5000035464764"></path><path id="kity_path_178" fill="none" stroke="gray"></path></g><path id="node_outline18" fill="none" stroke="none" d="M266.5000034868717,537.5000035464764h48a5,5,0,0,1,5,5v8a5,5,0,0,1,-5,5h-48a5,5,0,0,1,-5,-5v-8a5,5,0,0,1,5,-5z" stroke-width="3"></path><g id="node_text18" fill="black"><text id="kity_text_174" text-rendering="inherit" font-size="12" dy=".8em" y="538.7000034749508" x="266.5000034868717">三大买点</text></g></g><g id="minder_node19"><path id="kity_path_277" fill="rgba(0, 0, 0, .25)" stroke="none" d="M368.5000042617321,422.0000023841858h0a52,52,0,0,1,52,52v0a52,52,0,0,1,-52,52h0a52,52,0,0,1,-52,-52v0a52,52,0,0,1,52,-52z" display="none"></path><g id="node_expander18" style="cursor: pointer;" display="none"><path id="kity_path_185" fill="white" stroke="gray" d="M313.5000042617321,468.5000023841858A6,6,0,1,1,301.5000042617321,468.5000023841858A6,6,0,1,1,313.5000042617321,468.5000023841858"></path><path id="kity_path_186" fill="none" stroke="gray"></path></g><path id="node_outline19" fill="none" stroke="none" d="M318.5000042617321,459.5000023841858h85a5,5,0,0,1,5,5v8a5,5,0,0,1,-5,5h-85a5,5,0,0,1,-5,-5v-8a5,5,0,0,1,5,-5z" stroke-width="3"></path><g id="node_text19" fill="black"><text id="kity_text_182" text-rendering="inherit" font-size="12" dy=".8em" y="460.7000023126602" x="318.5000042617321">波浪的形态结构</text></g></g><g id="minder_node20"><path id="kity_path_278" fill="rgba(0, 0, 0, .25)" stroke="none" d="M368.5000042617321,448.000002771616h0a52,52,0,0,1,52,52v0a52,52,0,0,1,-52,52h0a52,52,0,0,1,-52,-52v0a52,52,0,0,1,52,-52z" display="none"></path><g id="node_expander19" style="cursor: pointer;" display="none"><path id="kity_path_193" fill="white" stroke="gray" d="M313.5000042617321,494.500002771616A6,6,0,1,1,301.5000042617321,494.500002771616A6,6,0,1,1,313.5000042617321,494.500002771616"></path><path id="kity_path_194" fill="none" stroke="gray"></path></g><path id="node_outline20" fill="none" stroke="none" d="M318.5000042617321,485.500002771616h85a5,5,0,0,1,5,5v8a5,5,0,0,1,-5,5h-85a5,5,0,0,1,-5,-5v-8a5,5,0,0,1,5,-5z" stroke-width="3"></path><g id="node_text20" fill="black"><text id="kity_text_190" text-rendering="inherit" font-size="12" dy=".8em" y="486.7000027000904" x="318.5000042617321">波浪的主要规则</text></g></g><g id="minder_node21"><path id="kity_path_270" fill="rgba(0, 0, 0, .25)" stroke="none" d="M395.5000048875809,270.9999999254942h0a38,38,0,0,1,38,38v0a38,38,0,0,1,-38,38h0a38,38,0,0,1,-38,-38v0a38,38,0,0,1,38,-38z" display="none"></path><g id="node_expander20" style="cursor: pointer;" display="none"><path id="kity_path_201" fill="white" stroke="gray" d="M355.5000048875809,303.4999999254942A6,6,0,1,1,343.5000048875809,303.4999999254942A6,6,0,1,1,355.5000048875809,303.4999999254942"></path><path id="kity_path_202" fill="none" stroke="gray"></path></g><path id="node_outline21" fill="none" stroke="none" d="M360.5000048875809,294.4999999254942h57a5,5,0,0,1,5,5v8a5,5,0,0,1,-5,5h-57a5,5,0,0,1,-5,-5v-8a5,5,0,0,1,5,-5z" stroke-width="3"></path><g id="node_text21" fill="black"><text id="kity_text_198" text-rendering="inherit" font-size="12" dy=".8em" y="295.6999998539686" x="360.5000048875809">反转买A点</text></g></g><g id="minder_node22"><path id="kity_path_271" fill="rgba(0, 0, 0, .25)" stroke="none" d="M395.0000048875809,298.0000003129244h0a37,37,0,0,1,37,37v0a37,37,0,0,1,-37,37h0a37,37,0,0,1,-37,-37v0a37,37,0,0,1,37,-37z" display="none"></path><g id="node_expander21" style="cursor: pointer;" display="none"><path id="kity_path_209" fill="white" stroke="gray" d="M355.5000048875809,329.5000003129244A6,6,0,1,1,343.5000048875809,329.5000003129244A6,6,0,1,1,355.5000048875809,329.5000003129244"></path><path id="kity_path_210" fill="none" stroke="gray"></path></g><path id="node_outline22" fill="none" stroke="none" d="M360.5000048875809,320.5000003129244h56a5,5,0,0,1,5,5v8a5,5,0,0,1,-5,5h-56a5,5,0,0,1,-5,-5v-8a5,5,0,0,1,5,-5z" stroke-width="3"></path><g id="node_text22" fill="black"><text id="kity_text_206" text-rendering="inherit" font-size="12" dy=".8em" y="321.7000002413988" x="360.5000048875809">回撤买C点</text></g></g><g id="minder_node23"><path id="kity_path_272" fill="rgba(0, 0, 0, .25)" stroke="none" d="M435.0000048875809,285.0000007003546h0a76,76,0,0,1,76,76v0a76,76,0,0,1,-76,76h0a76,76,0,0,1,-76,-76v0a76,76,0,0,1,76,-76z" display="none"></path><g id="node_expander22" style="cursor: pointer;" display="none"><path id="kity_path_217" fill="white" stroke="gray" d="M355.5000048875809,355.5000007003546A6,6,0,1,1,343.5000048875809,355.5000007003546A6,6,0,1,1,355.5000048875809,355.5000007003546"></path><path id="kity_path_218" fill="none" stroke="gray"></path></g><path id="node_outline23" fill="none" stroke="none" d="M360.5000048875809,346.5000007003546h131a5,5,0,0,1,5,5v8a5,5,0,0,1,-5,5h-131a5,5,0,0,1,-5,-5v-8a5,5,0,0,1,5,-5z" stroke-width="3"></path><g id="node_text23" fill="black"><text id="kity_text_214" text-rendering="inherit" font-size="12" dy=".8em" y="347.700000628829" x="360.5000048875809">正N字结构不存在做空点</text></g></g><g id="minder_node24"><path id="kity_path_273" fill="rgba(0, 0, 0, .25)" stroke="none" d="M435.0000048875809,311.00000108778477h0a76,76,0,0,1,76,76v0a76,76,0,0,1,-76,76h0a76,76,0,0,1,-76,-76v0a76,76,0,0,1,76,-76z" display="none"></path><g id="node_expander23" style="cursor: pointer;" display="none"><path id="kity_path_225" fill="white" stroke="gray" d="M355.5000048875809,381.50000108778477A6,6,0,1,1,343.5000048875809,381.50000108778477A6,6,0,1,1,355.5000048875809,381.50000108778477"></path><path id="kity_path_226" fill="none" stroke="gray"></path></g><path id="node_outline24" fill="none" stroke="none" d="M360.5000048875809,372.50000108778477h131a5,5,0,0,1,5,5v8a5,5,0,0,1,-5,5h-131a5,5,0,0,1,-5,-5v-8a5,5,0,0,1,5,-5z" stroke-width="3"></path><g id="node_text24" fill="black"><text id="kity_text_222" text-rendering="inherit" font-size="12" dy=".8em" y="373.7000010162592" x="360.5000048875809">倒N字结构不存在做多点</text></g></g><g id="minder_node25"><path id="kity_path_266" fill="rgba(0, 0, 0, .25)" stroke="none" d="M466.5000054091215,157.99999876320362h0a73,73,0,0,1,73,73v0a73,73,0,0,1,-73,73h0a73,73,0,0,1,-73,-73v0a73,73,0,0,1,73,-73z" display="none"></path><g id="node_expander24" style="cursor: pointer;" display="none"><path id="kity_path_233" fill="white" stroke="gray" d="M390.5000054091215,225.49999876320362A6,6,0,1,1,378.5000054091215,225.49999876320362A6,6,0,1,1,390.5000054091215,225.49999876320362"></path><path id="kity_path_234" fill="none" stroke="gray"></path></g><path id="node_outline25" fill="none" stroke="none" d="M395.5000054091215,216.49999876320362h124a5,5,0,0,1,5,5v8a5,5,0,0,1,-5,5h-124a5,5,0,0,1,-5,-5v-8a5,5,0,0,1,5,-5z" stroke-width="3"></path><g id="node_text25" fill="black"><text id="kity_text_230" text-rendering="inherit" font-size="12" dy=".8em" y="217.69999869167805" x="395.5000054091215">吸筹——洗筹——拉升</text></g></g><g id="minder_node26"><path id="kity_path_267" fill="rgba(0, 0, 0, .25)" stroke="none" d="M467.5000054091215,182.9999991506338h0a74,74,0,0,1,74,74v0a74,74,0,0,1,-74,74h0a74,74,0,0,1,-74,-74v0a74,74,0,0,1,74,-74z" display="none"></path><g id="node_expander25" style="cursor: pointer;" display="none"><path id="kity_path_241" fill="white" stroke="gray" d="M390.5000054091215,251.4999991506338A6,6,0,1,1,378.5000054091215,251.4999991506338A6,6,0,1,1,390.5000054091215,251.4999991506338"></path><path id="kity_path_242" fill="none" stroke="gray"></path></g><path id="node_outline26" fill="none" stroke="none" d="M395.5000054091215,242.4999991506338h125a5,5,0,0,1,5,5v8a5,5,0,0,1,-5,5h-125a5,5,0,0,1,-5,-5v-8a5,5,0,0,1,5,-5z" stroke-width="3"></path><g id="node_text26" fill="black"><text id="kity_text_238" text-rendering="inherit" font-size="12" dy=".8em" y="243.69999907910824" x="395.5000054091215">发散——收敛——发散</text></g></g><g id="minder_node27"><path id="kity_path_268" fill="rgba(0, 0, 0, .25)" stroke="none" d="M447.0000054091215,228.999999538064h0a54,54,0,0,1,54,54v0a54,54,0,0,1,-54,54h0a54,54,0,0,1,-54,-54v0a54,54,0,0,1,54,-54z" display="none"></path><g id="node_expander26" style="cursor: pointer;" display="none"><path id="kity_path_249" fill="white" stroke="gray" d="M390.5000054091215,277.499999538064A6,6,0,1,1,378.5000054091215,277.499999538064A6,6,0,1,1,390.5000054091215,277.499999538064"></path><path id="kity_path_250" fill="none" stroke="gray"></path></g><path id="node_outline27" fill="none" stroke="none" d="M395.5000054091215,268.499999538064h88a5,5,0,0,1,5,5v8a5,5,0,0,1,-5,5h-88a5,5,0,0,1,-5,-5v-8a5,5,0,0,1,5,-5z" stroke-width="3"></path><g id="node_text27" fill="black"><text id="kity_text_246" text-rendering="inherit" font-size="12" dy=".8em" y="269.69999946653843" x="395.5000054091215">呼——吸——呼</text></g></g><g id="minder_node7"><path id="kity_path_261" fill="rgba(0, 0, 0, .25)" stroke="none" d="M274.50000305473804,78.99999709427357h0a40,40,0,0,1,40,40v0a40,40,0,0,1,-40,40h0a40,40,0,0,1,-40,-40v0a40,40,0,0,1,40,-40z" display="none"></path><g id="node_expander6" style="cursor: pointer;" display="none"><path id="kity_path_89" fill="white" stroke="gray" d="M232.50000305473804,113.49999709427357A6,6,0,1,1,220.50000305473804,113.49999709427357A6,6,0,1,1,232.50000305473804,113.49999709427357"></path><path id="kity_path_90" fill="none" stroke="gray"></path></g><path id="node_outline7" fill="none" stroke="none" d="M237.50000305473804,104.49999709427357h61a5,5,0,0,1,5,5v8a5,5,0,0,1,-5,5h-61a5,5,0,0,1,-5,-5v-8a5,5,0,0,1,5,-5z" stroke-width="3"></path><g id="node_text7" fill="black"><text id="kity_text_86" text-rendering="inherit" font-size="12" dy=".8em" y="105.699997022748" x="237.50000305473804">走势的概念</text></g></g><g id="minder_node9"><path id="kity_path_262" fill="rgba(0, 0, 0, .25)" stroke="none" d="M348.50000435113907,116.99999748170379h0a28,28,0,0,1,28,28v0a28,28,0,0,1,-28,28h0a28,28,0,0,1,-28,-28v0a28,28,0,0,1,28,-28z" display="none"></path><g id="node_expander8" style="cursor: pointer;" display="none"><path id="kity_path_105" fill="white" stroke="gray" d="M319.50000435113907,139.4999974817038A6,6,0,1,1,307.50000435113907,139.4999974817038A6,6,0,1,1,319.50000435113907,139.4999974817038"></path><path id="kity_path_106" fill="none" stroke="gray"></path></g><path id="node_outline9" fill="none" stroke="none" d="M324.50000435113907,130.4999974817038h37a5,5,0,0,1,5,5v8a5,5,0,0,1,-5,5h-37a5,5,0,0,1,-5,-5v-8a5,5,0,0,1,5,-5z" stroke-width="3"></path><g id="node_text9" fill="black"><text id="kity_text_102" text-rendering="inherit" font-size="12" dy=".8em" y="131.6999974101782" x="324.50000435113907">短中长</text></g></g><g id="minder_node10"><path id="kity_path_263" fill="rgba(0, 0, 0, .25)" stroke="none" d="M355.00000435113907,136.99999786913395h0a34,34,0,0,1,34,34v0a34,34,0,0,1,-34,34h0a34,34,0,0,1,-34,-34v0a34,34,0,0,1,34,-34z" display="none"></path><g id="node_expander9" style="cursor: pointer;" display="none"><path id="kity_path_113" fill="white" stroke="gray" d="M319.50000435113907,165.49999786913395A6,6,0,1,1,307.50000435113907,165.49999786913395A6,6,0,1,1,319.50000435113907,165.49999786913395"></path><path id="kity_path_114" fill="none" stroke="gray"></path></g><path id="node_outline10" fill="none" stroke="none" d="M324.50000435113907,156.49999786913395h50a5,5,0,0,1,5,5v8a5,5,0,0,1,-5,5h-50a5,5,0,0,1,-5,-5v-8a5,5,0,0,1,5,-5z" stroke-width="3"></path><g id="node_text10" fill="black"><text id="kity_text_110" text-rendering="inherit" font-size="12" dy=".8em" y="157.69999779760838" x="324.50000435113907">道式理论</text></g></g><g id="minder_node11"><path id="kity_path_264" fill="rgba(0, 0, 0, .25)" stroke="none" d="M348.50000435113907,168.99999825656414h0a28,28,0,0,1,28,28v0a28,28,0,0,1,-28,28h0a28,28,0,0,1,-28,-28v0a28,28,0,0,1,28,-28z" display="none"></path><g id="node_expander10" style="cursor: pointer;" display="none"><path id="kity_path_121" fill="white" stroke="gray" d="M319.50000435113907,191.49999825656414A6,6,0,1,1,307.50000435113907,191.49999825656414A6,6,0,1,1,319.50000435113907,191.49999825656414"></path><path id="kity_path_122" fill="none" stroke="gray"></path></g><path id="node_outline11" fill="none" stroke="none" d="M324.50000435113907,182.49999825656414h37a5,5,0,0,1,5,5v8a5,5,0,0,1,-5,5h-37a5,5,0,0,1,-5,-5v-8a5,5,0,0,1,5,-5z" stroke-width="3"></path><g id="node_text11" fill="black"><text id="kity_text_118" text-rendering="inherit" font-size="12" dy=".8em" y="183.69999818503857" x="324.50000435113907">上下盘</text></g></g><g id="minder_node8"><path id="kity_path_265" fill="rgba(0, 0, 0, .25)" stroke="none" d="M274.50000305473804,130.99999786913395h0a40,40,0,0,1,40,40v0a40,40,0,0,1,-40,40h0a40,40,0,0,1,-40,-40v0a40,40,0,0,1,40,-40z" display="none"></path><g id="node_expander7" style="cursor: pointer;"><path id="kity_path_97" fill="white" stroke="gray" d="M232.50000305473804,165.49999786913395A6,6,0,1,1,220.50000305473804,165.49999786913395A6,6,0,1,1,232.50000305473804,165.49999786913395"></path><path id="kity_path_98" fill="none" stroke="gray" d="M222.00000305473804,165.49999786913395L231.00000305473804,165.49999786913395"></path></g><path id="node_outline8" fill="none" stroke="none" d="M237.50000305473804,156.49999786913395h61a5,5,0,0,1,5,5v8a5,5,0,0,1,-5,5h-61a5,5,0,0,1,-5,-5v-8a5,5,0,0,1,5,-5z" stroke-width="3"></path><g id="node_text8" fill="black"><text id="kity_text_94" text-rendering="inherit" font-size="12" dy=".8em" y="157.69999779760838" x="237.50000305473804">走势的划分</text></g></g></g></g></svg>