<svg id="kity_svg_6" xmlns="http://www.w3.org/2000/svg" xmlns:xlink="http://www.w3.org/1999/xlink" version="1.1" width="335" height="386" style="background: rgb(251, 251, 251); visibility: visible;" viewBox="0 0 335 386"><defs id="kity_defs_7"><linearGradient id="kity_linearGradient_17" x1="0" y1="0" x2="0" y2="1"><stop id="kity_stop_18" offset="0" stop-color="rgb(255, 255, 255)"></stop><stop id="kity_stop_19" offset="1" stop-color="rgb(204, 204, 204)"></stop></linearGradient><marker id="kity_marker_2" orient="auto" refX="6" refY="0" viewBox="-7 -7 14 14" markerWidth="7" markerHeight="7" markerUnits="userSpaceOnUse"><path id="kity_path_3" fill="rgb(115, 161, 191)" stroke="none" d="M6,0A6,6,0,1,1,-6,0A6,6,0,1,1,6,0"></path></marker></defs><g id="kity_g_8"><g id="minder1" text-rendering="optimize-speed"><g id="minder_connect_group1"><path id="kity_path_31" fill="none" stroke="rgb(115, 161, 191)" stroke-width="1" d="M56.5,157.5A52,102,0,0,1,108.5,55.5"></path><path id="kity_path_33" fill="none" stroke="rgb(115, 161, 191)" stroke-width="1" d="M165.5,55.5C173.5,55.5,173.5,29.5,181.5,29.5"></path><path id="kity_path_35" fill="none" stroke="rgb(115, 161, 191)" stroke-width="1" d="M165.5,55.5C173.5,55.5,173.5,55.5,181.5,55.5"></path><path id="kity_path_37" fill="none" stroke="rgb(115, 161, 191)" stroke-width="1" d="M165.5,55.5C173.5,55.5,173.5,81.5,181.5,81.5"></path><path id="kity_path_39" fill="none" stroke="rgb(115, 161, 191)" stroke-width="1" d="M56.5,157.5A52,16,0,0,1,108.5,141.5"></path><path id="kity_path_41" fill="none" stroke="rgb(115, 161, 191)" stroke-width="1" d="M166.5,141.5C174.5,141.5,174.5,115.5,182.5,115.5"></path><path id="kity_path_43" fill="none" stroke="rgb(115, 161, 191)" stroke-width="1" d="M166.5,141.5C174.5,141.5,174.5,141.5,182.5,141.5"></path><path id="kity_path_45" fill="none" stroke="rgb(115, 161, 191)" stroke-width="1" d="M166.5,141.5C174.5,141.5,174.5,167.5,182.5,167.5"></path><path id="kity_path_47" fill="none" stroke="rgb(115, 161, 191)" stroke-width="1" d="M56.5,157.5A52,102,0,0,0,108.5,259.5"></path><path id="kity_path_49" fill="none" stroke="rgb(115, 161, 191)" stroke-width="1" d="M164.5,259.5C172.5,259.5,172.5,201.5,180.5,201.5"></path><path id="kity_path_51" fill="none" stroke="rgb(115, 161, 191)" stroke-width="1" d="M164.5,259.5C172.5,259.5,172.5,240.5,180.5,240.5"></path><path id="kity_path_53" fill="none" stroke="rgb(115, 161, 191)" stroke-width="1" d="M239.5,240.5C247.5,240.5,247.5,227.5,255.5,227.5"></path><path id="kity_path_55" fill="none" stroke="rgb(115, 161, 191)" stroke-width="1" d="M239.5,240.5C247.5,240.5,247.5,253.5,255.5,253.5"></path><path id="kity_path_57" fill="none" stroke="rgb(115, 161, 191)" stroke-width="1" d="M164.5,259.5C172.5,259.5,172.5,318.5,180.5,318.5"></path><path id="kity_path_59" fill="none" stroke="rgb(115, 161, 191)" stroke-width="1" d="M238.5,318.5C246.5,318.5,246.5,279.5,254.5,279.5"></path><path id="kity_path_61" fill="none" stroke="rgb(115, 161, 191)" stroke-width="1" d="M238.5,318.5C246.5,318.5,246.5,305.5,254.5,305.5"></path><path id="kity_path_63" fill="none" stroke="rgb(115, 161, 191)" stroke-width="1" d="M238.5,318.5C246.5,318.5,246.5,331.5,254.5,331.5"></path><path id="kity_path_65" fill="none" stroke="rgb(115, 161, 191)" stroke-width="1" d="M238.5,318.5C246.5,318.5,246.5,357.5,254.5,357.5"></path></g><g id="minder_node1"><path id="node_outline1" fill="rgb(115, 161, 191)" stroke="rgb(115, 161, 191)" d="M25.5,143.5h62a5,5,0,0,1,5,5v18a5,5,0,0,1,-5,5h-62a5,5,0,0,1,-5,-5v-18a5,5,0,0,1,5,-5z" stroke-width="3"></path><g id="node_text1" fill="white"><text id="kity_text_22" text-rendering="inherit" font-size="16" dy=".8em" y="147.09999990463257" x="32.5">量价时</text></g></g><g id="kity_g_12"><path id="kity_path_13" fill="none" stroke="none" d="M32.5,157.5h0v0h0z"></path></g><g id="kity_g_14"><path id="kity_path_15" fill="none" stroke="none" d="M32.5,157.5h0v0h0z"></path><path id="kity_path_16" fill="none" stroke="none"></path></g><g id="minder_node2"><g id="node_expander4" style="cursor: pointer;"><path id="kity_path_130" fill="white" stroke="gray" d="M109.5000014603138,55.49999848008156A6,6,0,1,1,97.5000014603138,55.49999848008156A6,6,0,1,1,109.5000014603138,55.49999848008156"></path><path id="kity_path_131" fill="none" stroke="gray" d="M99.0000014603138,55.49999848008156L108.0000014603138,55.49999848008156"></path></g><path id="node_outline5" fill="rgb(238, 243, 246)" stroke="rgb(115, 161, 191)" d="M113.5000014603138,42.49999848008156h49a3,3,0,0,1,3,3v20a3,3,0,0,1,-3,3h-49a3,3,0,0,1,-3,-3v-20a3,3,0,0,1,3,-3z" stroke-width="1"></path><g id="node_text5" fill="black"><text id="kity_text_73" text-rendering="inherit" font-size="14" dy=".8em" y="46.39999833703041" x="130.5000014603138">量</text></g></g><g id="minder_node3"><g id="node_expander1" style="cursor: pointer;" display="none"><path id="kity_path_121" fill="white" stroke="gray" d="M181.50000229477882,29.499998092651367A6,6,0,1,1,169.50000229477882,29.499998092651367A6,6,0,1,1,181.50000229477882,29.499998092651367"></path><path id="kity_path_122" fill="none" stroke="gray"></path></g><path id="node_outline2" fill="none" stroke="none" d="M186.50000229477882,20.499998092651367h26a5,5,0,0,1,5,5v8a5,5,0,0,1,-5,5h-26a5,5,0,0,1,-5,-5v-8a5,5,0,0,1,5,-5z"></path><g id="node_text2" fill="black"><text id="kity_text_67" text-rendering="inherit" font-size="12" dy=".8em" y="21.699998021125793" x="186.50000229477882">概念</text></g></g><g id="minder_node4"><g id="node_expander2" style="cursor: pointer;" display="none"><path id="kity_path_124" fill="white" stroke="gray" d="M181.50000229477882,55.49999848008156A6,6,0,1,1,169.50000229477882,55.49999848008156A6,6,0,1,1,181.50000229477882,55.49999848008156"></path><path id="kity_path_125" fill="none" stroke="gray"></path></g><path id="node_outline3" fill="none" stroke="none" d="M186.50000229477882,46.49999848008156h25a5,5,0,0,1,5,5v8a5,5,0,0,1,-5,5h-25a5,5,0,0,1,-5,-5v-8a5,5,0,0,1,5,-5z"></path><g id="node_text3" fill="black"><text id="kity_text_69" text-rendering="inherit" font-size="12" dy=".8em" y="47.699998408555984" x="186.50000229477882">特征</text></g></g><g id="minder_node5"><g id="node_expander3" style="cursor: pointer;" display="none"><path id="kity_path_127" fill="white" stroke="gray" d="M181.50000229477882,81.49999886751175A6,6,0,1,1,169.50000229477882,81.49999886751175A6,6,0,1,1,181.50000229477882,81.49999886751175"></path><path id="kity_path_128" fill="none" stroke="gray"></path></g><path id="node_outline4" fill="none" stroke="none" d="M186.50000229477882,72.49999886751175h49a5,5,0,0,1,5,5v8a5,5,0,0,1,-5,5h-49a5,5,0,0,1,-5,-5v-8a5,5,0,0,1,5,-5z"></path><g id="node_text4" fill="black"><text id="kity_text_71" text-rendering="inherit" font-size="12" dy=".8em" y="73.69999879598618" x="186.50000229477882">量价关系</text></g></g><g id="minder_node6"><g id="node_expander8" style="cursor: pointer;"><path id="kity_path_142" fill="white" stroke="gray" d="M109.5000014603138,141.49999976158142A6,6,0,1,1,97.5000014603138,141.49999976158142A6,6,0,1,1,109.5000014603138,141.49999976158142"></path><path id="kity_path_143" fill="none" stroke="gray" d="M99.0000014603138,141.49999976158142L108.0000014603138,141.49999976158142"></path></g><path id="node_outline9" fill="rgb(238, 243, 246)" stroke="rgb(115, 161, 191)" d="M113.5000014603138,128.49999976158142h50a3,3,0,0,1,3,3v20a3,3,0,0,1,-3,3h-50a3,3,0,0,1,-3,-3v-20a3,3,0,0,1,3,-3z" stroke-width="1"></path><g id="node_text9" fill="black"><text id="kity_text_81" text-rendering="inherit" font-size="14" dy=".8em" y="132.39999961853027" x="130.5000014603138">价</text></g></g><g id="minder_node7"><g id="node_expander5" style="cursor: pointer;" display="none"><path id="kity_path_133" fill="white" stroke="gray" d="M182.50000230967999,115.49999937415123A6,6,0,1,1,170.50000230967999,115.49999937415123A6,6,0,1,1,182.50000230967999,115.49999937415123"></path><path id="kity_path_134" fill="none" stroke="gray"></path></g><path id="node_outline6" fill="none" stroke="none" d="M187.50000230967999,106.49999937415123h48a5,5,0,0,1,5,5v8a5,5,0,0,1,-5,5h-48a5,5,0,0,1,-5,-5v-8a5,5,0,0,1,5,-5z"></path><g id="node_text6" fill="black"><text id="kity_text_75" text-rendering="inherit" font-size="12" dy=".8em" y="107.69999930262566" x="187.50000230967999">卡位思维</text></g></g><g id="minder_node8"><g id="node_expander6" style="cursor: pointer;" display="none"><path id="kity_path_136" fill="white" stroke="gray" d="M182.50000230967999,141.49999976158142A6,6,0,1,1,170.50000230967999,141.49999976158142A6,6,0,1,1,182.50000230967999,141.49999976158142"></path><path id="kity_path_137" fill="none" stroke="gray"></path></g><path id="node_outline7" fill="none" stroke="none" d="M187.50000230967999,132.49999976158142h49a5,5,0,0,1,5,5v8a5,5,0,0,1,-5,5h-49a5,5,0,0,1,-5,-5v-8a5,5,0,0,1,5,-5z"></path><g id="node_text7" fill="black"><text id="kity_text_77" text-rendering="inherit" font-size="12" dy=".8em" y="133.69999969005585" x="187.50000230967999">三大前提</text></g></g><g id="minder_node9"><g id="node_expander7" style="cursor: pointer;" display="none"><path id="kity_path_139" fill="white" stroke="gray" d="M182.50000230967999,167.5000001490116A6,6,0,1,1,170.50000230967999,167.5000001490116A6,6,0,1,1,182.50000230967999,167.5000001490116"></path><path id="kity_path_140" fill="none" stroke="gray"></path></g><path id="node_outline8" fill="none" stroke="none" d="M187.50000230967999,158.5000001490116h50a5,5,0,0,1,5,5v8a5,5,0,0,1,-5,5h-50a5,5,0,0,1,-5,-5v-8a5,5,0,0,1,5,-5z"></path><g id="node_text8" fill="black"><text id="kity_text_79" text-rendering="inherit" font-size="12" dy=".8em" y="159.70000007748604" x="187.50000230967999">对数坐标</text></g></g><g id="minder_node10"><g id="node_expander18" style="cursor: pointer;"><path id="kity_path_172" fill="white" stroke="gray" d="M109.5000014603138,259.50000151991844A6,6,0,1,1,97.5000014603138,259.50000151991844A6,6,0,1,1,109.5000014603138,259.50000151991844"></path><path id="kity_path_173" fill="none" stroke="gray" d="M99.0000014603138,259.50000151991844L108.0000014603138,259.50000151991844"></path></g><path id="node_outline19" fill="rgb(238, 243, 246)" stroke="rgb(115, 161, 191)" d="M113.5000014603138,246.50000151991844h48a3,3,0,0,1,3,3v20a3,3,0,0,1,-3,3h-48a3,3,0,0,1,-3,-3v-20a3,3,0,0,1,3,-3z" stroke-width="1"></path><g id="node_text19" fill="black"><text id="kity_text_101" text-rendering="inherit" font-size="14" dy=".8em" y="250.4000013768673" x="130.5000014603138">时</text></g></g><g id="minder_node11"><g id="node_expander9" style="cursor: pointer;" display="none"><path id="kity_path_145" fill="white" stroke="gray" d="M180.50000227987766,201.5000006556511A6,6,0,1,1,168.50000227987766,201.5000006556511A6,6,0,1,1,180.50000227987766,201.5000006556511"></path><path id="kity_path_146" fill="none" stroke="gray"></path></g><path id="node_outline10" fill="none" stroke="none" d="M185.50000227987766,192.5000006556511h44a5,5,0,0,1,5,5v8a5,5,0,0,1,-5,5h-44a5,5,0,0,1,-5,-5v-8a5,5,0,0,1,5,-5z"></path><g id="node_text10" fill="black"><text id="kity_text_83" text-rendering="inherit" font-size="12" dy=".8em" y="193.70000058412552" x="185.50000227987766">K线周期</text></g></g><g id="minder_node12"><g id="node_expander12" style="cursor: pointer;"><path id="kity_path_154" fill="white" stroke="gray" d="M180.50000227987766,240.50000123679638A6,6,0,1,1,168.50000227987766,240.50000123679638A6,6,0,1,1,180.50000227987766,240.50000123679638"></path><path id="kity_path_155" fill="none" stroke="gray" d="M170.00000227987766,240.50000123679638L179.00000227987766,240.50000123679638"></path></g><path id="node_outline13" fill="none" stroke="none" d="M185.50000227987766,231.50000123679638h49a5,5,0,0,1,5,5v8a5,5,0,0,1,-5,5h-49a5,5,0,0,1,-5,-5v-8a5,5,0,0,1,5,-5z"></path><g id="node_text13" fill="black"><text id="kity_text_89" text-rendering="inherit" font-size="12" dy=".8em" y="232.7000011652708" x="185.50000227987766">周期互动</text></g></g><g id="minder_node13"><g id="node_expander10" style="cursor: pointer;" display="none"><path id="kity_path_148" fill="white" stroke="gray" d="M255.50000339746475,227.50000104308128A6,6,0,1,1,243.50000339746475,227.50000104308128A6,6,0,1,1,255.50000339746475,227.50000104308128"></path><path id="kity_path_149" fill="none" stroke="gray"></path></g><path id="node_outline11" fill="none" stroke="none" d="M260.50000339746475,218.50000104308128h50a5,5,0,0,1,5,5v8a5,5,0,0,1,-5,5h-50a5,5,0,0,1,-5,-5v-8a5,5,0,0,1,5,-5z"></path><g id="node_text11" fill="black"><text id="kity_text_85" text-rendering="inherit" font-size="12" dy=".8em" y="219.7000009715557" x="260.50000339746475">看大做小</text></g></g><g id="minder_node14"><g id="node_expander11" style="cursor: pointer;" display="none"><path id="kity_path_151" fill="white" stroke="gray" d="M255.50000339746475,253.5000014305115A6,6,0,1,1,243.50000339746475,253.5000014305115A6,6,0,1,1,255.50000339746475,253.5000014305115"></path><path id="kity_path_152" fill="none" stroke="gray"></path></g><path id="node_outline12" fill="none" stroke="none" d="M260.50000339746475,244.5000014305115h49a5,5,0,0,1,5,5v8a5,5,0,0,1,-5,5h-49a5,5,0,0,1,-5,-5v-8a5,5,0,0,1,5,-5z"></path><g id="node_text12" fill="black"><text id="kity_text_87" text-rendering="inherit" font-size="12" dy=".8em" y="245.70000135898593" x="260.50000339746475">由小转大</text></g></g><g id="minder_node15"><g id="node_expander17" style="cursor: pointer;"><path id="kity_path_169" fill="white" stroke="gray" d="M180.50000227987766,318.50000239908695A6,6,0,1,1,168.50000227987766,318.50000239908695A6,6,0,1,1,180.50000227987766,318.50000239908695"></path><path id="kity_path_170" fill="none" stroke="gray" d="M170.00000227987766,318.50000239908695L179.00000227987766,318.50000239908695"></path></g><path id="node_outline18" fill="none" stroke="none" d="M185.50000227987766,309.50000239908695h48a5,5,0,0,1,5,5v8a5,5,0,0,1,-5,5h-48a5,5,0,0,1,-5,-5v-8a5,5,0,0,1,5,-5z"></path><g id="node_text18" fill="black"><text id="kity_text_99" text-rendering="inherit" font-size="12" dy=".8em" y="310.7000023275614" x="185.50000227987766">市场周期</text></g></g><g id="minder_node16"><g id="node_expander13" style="cursor: pointer;" display="none"><path id="kity_path_157" fill="white" stroke="gray" d="M254.5000033825636,279.50000181794167A6,6,0,1,1,242.5000033825636,279.50000181794167A6,6,0,1,1,254.5000033825636,279.50000181794167"></path><path id="kity_path_158" fill="none" stroke="gray"></path></g><path id="node_outline14" fill="none" stroke="none" d="M259.5000033825636,270.50000181794167h37a5,5,0,0,1,5,5v8a5,5,0,0,1,-5,5h-37a5,5,0,0,1,-5,-5v-8a5,5,0,0,1,5,-5z"></path><g id="node_text14" fill="black"><text id="kity_text_91" text-rendering="inherit" font-size="12" dy=".8em" y="271.7000017464161" x="259.5000033825636">积累期</text></g></g><g id="minder_node17"><g id="node_expander14" style="cursor: pointer;" display="none"><path id="kity_path_160" fill="white" stroke="gray" d="M254.5000033825636,305.50000220537186A6,6,0,1,1,242.5000033825636,305.50000220537186A6,6,0,1,1,254.5000033825636,305.50000220537186"></path><path id="kity_path_161" fill="none" stroke="gray"></path></g><path id="node_outline15" fill="none" stroke="none" d="M259.5000033825636,296.50000220537186h36a5,5,0,0,1,5,5v8a5,5,0,0,1,-5,5h-36a5,5,0,0,1,-5,-5v-8a5,5,0,0,1,5,-5z"></path><g id="node_text15" fill="black"><text id="kity_text_93" text-rendering="inherit" font-size="12" dy=".8em" y="297.7000021338463" x="259.5000033825636">上升期</text></g></g><g id="minder_node18"><g id="node_expander15" style="cursor: pointer;" display="none"><path id="kity_path_163" fill="white" stroke="gray" d="M254.5000033825636,331.50000259280205A6,6,0,1,1,242.5000033825636,331.50000259280205A6,6,0,1,1,254.5000033825636,331.50000259280205"></path><path id="kity_path_164" fill="none" stroke="gray"></path></g><path id="node_outline16" fill="none" stroke="none" d="M259.5000033825636,322.50000259280205h37a5,5,0,0,1,5,5v8a5,5,0,0,1,-5,5h-37a5,5,0,0,1,-5,-5v-8a5,5,0,0,1,5,-5z"></path><g id="node_text16" fill="black"><text id="kity_text_95" text-rendering="inherit" font-size="12" dy=".8em" y="323.7000025212765" x="259.5000033825636">卖出期</text></g></g><g id="minder_node19"><g id="node_expander16" style="cursor: pointer;" display="none"><path id="kity_path_166" fill="white" stroke="gray" d="M254.5000033825636,357.50000298023224A6,6,0,1,1,242.5000033825636,357.50000298023224A6,6,0,1,1,254.5000033825636,357.50000298023224"></path><path id="kity_path_167" fill="none" stroke="gray"></path></g><path id="node_outline17" fill="none" stroke="none" d="M259.5000033825636,348.50000298023224h36a5,5,0,0,1,5,5v8a5,5,0,0,1,-5,5h-36a5,5,0,0,1,-5,-5v-8a5,5,0,0,1,5,-5z"></path><g id="node_text17" fill="black"><text id="kity_text_97" text-rendering="inherit" font-size="12" dy=".8em" y="349.70000290870667" x="259.5000033825636">下降期</text></g></g></g></g></svg>